<?xml version="1.0" encoding="UTF-8" standalone="no"?>
<!-- Created with Inkscape (http://www.inkscape.org/) -->

<svg
   xmlns:dc="http://purl.org/dc/elements/1.1/"
   xmlns:cc="http://creativecommons.org/ns#"
   xmlns:rdf="http://www.w3.org/1999/02/22-rdf-syntax-ns#"
   xmlns:svg="http://www.w3.org/2000/svg"
   xmlns="http://www.w3.org/2000/svg"
   xmlns:sodipodi="http://sodipodi.sourceforge.net/DTD/sodipodi-0.dtd"
   xmlns:inkscape="http://www.inkscape.org/namespaces/inkscape"
   width="453.53799pt"
   height="114.35632pt"
   viewBox="0 0 159.99813 40.34237"
   version="1.1"
   id="svg8"
   inkscape:version="0.92.3 (2405546, 2018-03-11)"
   sodipodi:docname="compression-diagram.svg">
  <sodipodi:namedview
     id="base"
     pagecolor="#ffffff"
     bordercolor="#666666"
     borderopacity="1.0"
     inkscape:pageopacity="0.0"
     inkscape:pageshadow="2"
     inkscape:zoom="1.979899"
     inkscape:cx="303.33513"
     inkscape:cy="61.965068"
     inkscape:document-units="pt"
     inkscape:current-layer="layer1"
     showgrid="false"
     units="pt"
     fit-margin-top="5"
     fit-margin-right="5"
     fit-margin-left="5"
     fit-margin-bottom="5"
     inkscape:window-width="1920"
     inkscape:window-height="1170"
     inkscape:window-x="2560"
     inkscape:window-y="30"
     inkscape:window-maximized="1" />
  <defs
     id="defs2">
    <clipPath
       clipPathUnits="userSpaceOnUse"
       id="clipPath10446">
      <g
         inkscape:label="Clip"
         id="use10448"
         style="fill-opacity:1;stroke:none;stroke-width:1.00012505;stroke-miterlimit:4;stroke-dasharray:none;stroke-opacity:1">
        <ellipse
           ry="9.7328873"
           rx="13.418156"
           cy="241.07387"
           cx="56.527508"
           id="ellipse10492"
           style="fill-opacity:1;stroke:none;stroke-width:1.00012505;stroke-linecap:butt;stroke-miterlimit:4;stroke-dasharray:none;stroke-dashoffset:0;stroke-opacity:1;paint-order:normal" />
        <circle
           r="10.156242"
           cy="247.55515"
           cx="72.563675"
           id="circle10494"
           style="fill-opacity:1;stroke:none;stroke-width:1.00012505;stroke-linecap:butt;stroke-miterlimit:4;stroke-dasharray:none;stroke-dashoffset:0;stroke-opacity:1;paint-order:normal" />
        <circle
           r="8.2185383"
           cy="253.63553"
           cx="44.834465"
           id="circle10496"
           style="fill-opacity:1;stroke:none;stroke-width:1.00012505;stroke-linecap:butt;stroke-miterlimit:4;stroke-dasharray:none;stroke-dashoffset:0;stroke-opacity:1;paint-order:normal" />
        <ellipse
           ry="6.1471996"
           rx="15.902537"
           cy="264.92767"
           cx="62.808342"
           id="ellipse10498"
           style="fill-opacity:1;stroke:none;stroke-width:1.00012505;stroke-linecap:butt;stroke-miterlimit:4;stroke-dasharray:none;stroke-dashoffset:0;stroke-opacity:1;paint-order:normal" />
        <ellipse
           ry="5.6794777"
           rx="7.3499117"
           cy="259.51547"
           cx="50.647575"
           id="ellipse10500"
           style="fill-opacity:1;stroke:none;stroke-width:1.00012505;stroke-linecap:butt;stroke-miterlimit:4;stroke-dasharray:none;stroke-dashoffset:0;stroke-opacity:1;paint-order:normal" />
        <ellipse
           ry="3.7417734"
           rx="9.4212503"
           cy="260.91861"
           cx="77.441353"
           id="ellipse10502"
           style="fill-opacity:1;stroke:none;stroke-width:1.00012505;stroke-linecap:butt;stroke-miterlimit:4;stroke-dasharray:none;stroke-dashoffset:0;stroke-opacity:1;paint-order:normal" />
        <ellipse
           ry="13.096208"
           rx="22.784727"
           cy="253.1678"
           cx="65.414223"
           id="ellipse10504"
           style="fill-opacity:1;stroke:none;stroke-width:1.00012505;stroke-linecap:butt;stroke-miterlimit:4;stroke-dasharray:none;stroke-dashoffset:0;stroke-opacity:1;paint-order:normal" />
      </g>
    </clipPath>
    <marker
       inkscape:isstock="true"
       style="overflow:visible"
       id="Arrow2Lend"
       refX="0"
       refY="0"
       orient="auto"
       inkscape:stockid="Arrow2Lend">
      <path
         inkscape:connector-curvature="0"
         transform="matrix(-1.1,0,0,-1.1,-1.1,0)"
         d="M 8.7185878,4.0337352 -2.2072895,0.01601326 8.7185884,-4.0017078 c -1.7454984,2.3720609 -1.7354408,5.6174519 -6e-7,8.035443 z"
         style="fill:#000000;fill-opacity:1;fill-rule:evenodd;stroke:#000000;stroke-width:0.625;stroke-linejoin:round;stroke-opacity:1"
         id="path1341" />
    </marker>
  </defs>
  <metadata
     id="metadata5">
    <rdf:RDF>
      <cc:Work
         rdf:about="">
        <dc:format>image/svg+xml</dc:format>
        <dc:type
           rdf:resource="http://purl.org/dc/dcmitype/StillImage" />
        <dc:title></dc:title>
      </cc:Work>
    </rdf:RDF>
  </metadata>
  <g
     inkscape:label="Layer 1"
     inkscape:groupmode="layer"
     id="layer1"
     transform="translate(0,-256.65769)">
    <g
       id="g868">
      <g
         id="content"
         transform="matrix(0.14179465,0,0,-0.14179465,-24.814064,120.45)"
         xml:space="preserve"
         stroke-miterlimit="10.433"
         font-style="normal"
         font-variant="normal"
         font-weight="normal"
         font-stretch="normal"
         font-size-adjust="none"
         letter-spacing="normal"
         word-spacing="normal"
         style="font-style:normal;font-variant:normal;font-weight:normal;font-stretch:normal;letter-spacing:normal;word-spacing:normal;text-anchor:start;fill:none;fill-opacity:1;fill-rule:evenodd;stroke:#000000;stroke-linecap:butt;stroke-linejoin:miter;stroke-miterlimit:10.43299961;stroke-dasharray:none;stroke-dashoffset:0;stroke-opacity:1"><path
           d="m 474.72,425.98 h 5.63 c -1.64,-7.38 -2.1,-9.52 -2.1,-12.85 0,-0.75 0,-2.09 0.41,-3.79 0.5,-2.19 1.05,-2.49 1.8,-2.49 0.98,0 2.03,0.89 2.03,1.89 0,0.3 0,0.41 -0.3,1.1 -1.44,3.59 -1.44,6.82 -1.44,8.21 0,2.65 0.35,5.35 0.89,7.93 h 5.69 c 0.64,0 2.44,0 2.44,1.7 0,1.19 -1.05,1.19 -2,1.19 h -16.69 c -1.09,0 -2.98,0 -5.17,-2.35 -1.75,-1.93 -3.05,-4.23 -3.05,-4.48 0,-0.05 0,-0.49 0.6,-0.49 0.4,0 0.5,0.19 0.79,0.6 2.46,3.83 5.35,3.83 6.33,3.83 h 2.85 c -1.6,-6.02 -4.29,-12.05 -6.38,-16.58 -0.41,-0.75 -0.41,-0.86 -0.41,-1.2 0,-0.96 0.8,-1.35 1.46,-1.35 1.5,0 1.89,1.39 2.48,3.24 0.71,2.29 0.71,2.39 1.35,4.89 z"
           id="path821"
           inkscape:connector-curvature="0"
           style="fill:#000000;stroke-width:0" /><path
           d="m 509.36,431.86 h -1.19 c -0.1,-0.76 -0.46,-2.82 -0.91,-3.17 -0.26,-0.2 -2.95,-0.2 -3.44,-0.2 h -6.42 c 3.66,3.23 4.88,4.2 6.97,5.84 2.58,2.06 4.99,4.22 4.99,7.53 0,4.22 -3.69,6.8 -8.16,6.8 -4.31,0 -7.25,-3.03 -7.25,-6.23 0,-1.79 1.5,-1.96 1.86,-1.96 0.83,0 1.84,0.6 1.84,1.85 0,0.62 -0.25,1.84 -2.06,1.84 1.08,2.47 3.45,3.23 5.09,3.23 3.49,0 5.3,-2.7 5.3,-5.53 0,-3.03 -2.16,-5.43 -3.28,-6.68 l -8.39,-8.3 c -0.36,-0.31 -0.36,-0.39 -0.36,-1.36 h 14.36 z"
           id="path823"
           inkscape:connector-curvature="0"
           style="fill:#000000;stroke-width:0" /><polyline
           points="462,385 514.56,385 514.56,387.04 462,387.04 "
           id="polyline825"
           style="fill:#000000;fill-rule:nonzero;stroke-width:0" /><path
           d="m 481.9,355.95 v 1.18 c 0,12.61 6.17,14.41 8.72,14.41 1.18,0 3.28,-0.3 4.37,-2 -0.73,0 -2.73,0 -2.73,-2.24 0,-1.54 1.2,-2.29 2.29,-2.29 0.8,0 2.29,0.45 2.29,2.39 0,3 -2.19,5.39 -6.32,5.39 -6.39,0 -13.11,-6.44 -13.11,-17.44 0,-13.31 5.79,-16.84 10.41,-16.84 5.53,0 10.27,4.69 10.27,11.25 0,6.33 -4.44,11.12 -9.97,11.12 l -0.05,-1.15 c 0.8,0 3.09,0 4.64,-3.1 0.89,-1.83 0.89,-4.37 0.89,-6.81 0,-2.39 0,-4.89 -0.84,-6.69 -1.5,-2.98 -3.78,-3.23 -4.94,-3.23 v 0 c -3.14,0 -4.62,2.98 -4.92,3.73 -0.91,2.35 -0.91,6.33 -0.91,7.24 0,3.87 1.6,8.86 6.08,8.86 l 0.05,1.15 c -3.38,0 -5.22,-2.54 -6.22,-4.93 z"
           id="path827"
           inkscape:connector-curvature="0"
           style="fill:#000000;stroke-width:0" /><path
           d="m 568.11,389.98 h 0.14 0.15 0.14 l 0.07,0.01 h 0.08 l 0.07,0.01 0.07,0.01 0.07,0.01 0.07,0.01 0.07,0.01 0.06,0.02 0.07,0.02 0.06,0.02 0.06,0.02 0.06,0.03 0.06,0.03 0.05,0.04 0.05,0.04 0.05,0.04 0.04,0.04 0.04,0.05 0.02,0.03 0.02,0.03 0.01,0.02 0.02,0.03 0.01,0.04 0.02,0.03 0.01,0.03 0.01,0.04 0.01,0.03 0.01,0.04 v 0.04 l 0.01,0.04 v 0.04 l 0.01,0.04 v 0.05 0.04 c 0,1 -0.95,1 -1.64,1 h -29.84 c -0.71,0 -1.64,0 -1.64,-1 0,-0.98 0.93,-0.98 1.68,-0.98 z"
           id="path829"
           inkscape:connector-curvature="0"
           style="fill:#000000;stroke-width:0" /><path
           d="m 568.16,380.3 0.07,0.01 h 0.06 0.14 0.14 l 0.07,0.01 h 0.07 l 0.07,0.01 0.07,0.01 0.06,0.01 0.07,0.01 0.07,0.01 0.06,0.02 0.07,0.02 0.06,0.02 0.06,0.02 0.06,0.03 0.05,0.03 0.05,0.04 0.05,0.04 0.05,0.04 0.04,0.05 0.02,0.02 0.02,0.03 0.02,0.02 0.02,0.03 0.01,0.03 0.02,0.03 0.01,0.03 0.02,0.04 0.01,0.03 0.01,0.03 0.01,0.04 0.01,0.04 v 0.04 l 0.01,0.04 v 0.04 l 0.01,0.04 v 0.05 0.04 c 0,1 -0.95,1 -1.69,1 h -29.75 c -0.75,0 -1.68,0 -1.68,-1 0,-1 0.93,-1 1.64,-1 z"
           id="path831"
           inkscape:connector-curvature="0"
           style="fill:#000000;stroke-width:0" /><path
           d="m 612.65,408.26 -7.17,-0.55 v -1.55 c 3.48,0 3.89,-0.34 3.89,-2.79 v -25.91 c 0,-2.23 -0.55,-2.23 -3.89,-2.23 v -1.55 c 1.64,0.05 4.28,0.16 5.53,0.16 1.25,0 3.69,-0.11 5.53,-0.16 v 1.55 c -3.34,0 -3.89,0 -3.89,2.23 z"
           id="path833"
           inkscape:connector-curvature="0"
           style="fill:#000000;stroke-width:0" /><path
           d="m 626.45,395.7 -6.97,-0.55 v -1.55 c 3.23,0 3.68,-0.3 3.68,-2.73 v -13.41 c 0,-2.23 -0.54,-2.23 -3.89,-2.23 v -1.55 c 1.6,0.05 4.28,0.16 5.49,0.16 1.75,0 3.48,-0.11 5.19,-0.16 v 1.55 c -3.3,0 -3.5,0.25 -3.5,2.18 z"
           id="path835"
           inkscape:connector-curvature="0"
           style="fill:#000000;stroke-width:0" /><path
           d="m 626.65,404.37 -0.01,0.14 -0.01,0.15 -0.01,0.14 -0.03,0.14 -0.03,0.13 -0.04,0.13 -0.04,0.13 -0.05,0.12 -0.05,0.12 -0.06,0.12 -0.07,0.11 -0.07,0.1 -0.08,0.11 -0.08,0.09 -0.08,0.1 -0.09,0.09 -0.09,0.08 -0.1,0.08 -0.1,0.07 -0.11,0.07 -0.1,0.07 -0.11,0.06 -0.12,0.05 -0.11,0.05 -0.12,0.04 -0.12,0.04 -0.12,0.03 -0.13,0.03 -0.13,0.02 -0.12,0.02 h -0.13 l -0.13,0.01 c -1.55,0 -2.64,-1.35 -2.64,-2.64 0,-1.35 1.09,-2.64 2.64,-2.64 1.39,0 2.64,1.04 2.64,2.64 z"
           id="path837"
           inkscape:connector-curvature="0"
           style="fill:#000000;stroke-width:0" /><path
           d="m 636.91,390.82 v -13.36 c 0,-2.23 -0.54,-2.23 -3.89,-2.23 v -1.55 c 1.75,0.05 4.28,0.16 5.63,0.16 1.3,0 3.89,-0.11 5.58,-0.16 v 1.55 c -3.33,0 -3.88,0 -3.88,2.23 v 9.17 c 0,5.19 3.53,7.97 6.72,7.97 3.14,0 3.69,-2.69 3.69,-5.53 v -11.61 c 0,-2.23 -0.55,-2.23 -3.89,-2.23 v -1.55 c 1.75,0.05 4.29,0.16 5.64,0.16 1.29,0 3.87,-0.11 5.58,-0.16 v 1.55 c -3.35,0 -3.89,0 -3.89,2.23 v 9.17 c 0,5.19 3.54,7.97 6.73,7.97 3.14,0 3.69,-2.69 3.69,-5.53 v -11.61 c 0,-2.23 -0.55,-2.23 -3.89,-2.23 v -1.55 c 1.73,0.05 4.28,0.16 5.62,0.16 1.3,0 3.89,-0.11 5.58,-0.16 v 1.55 c -2.58,0 -3.83,0 -3.88,1.5 v 9.51 c 0,4.28 0,5.83 -1.54,7.61 -0.71,0.86 -2.35,1.85 -5.24,1.85 -4.18,0 -6.37,-2.99 -7.22,-4.88 -0.7,4.33 -4.39,4.88 -6.62,4.88 -3.64,0 -5.98,-2.15 -7.38,-5.22 v 5.22 l -7.03,-0.55 v -1.55 c 3.49,0 3.89,-0.34 3.89,-2.78 z"
           id="path839"
           inkscape:connector-curvature="0"
           style="fill:#000000;stroke-width:0" /><path
           d="m 590.69,345.99 -0.01,-0.04 -0.02,-0.05 -0.01,-0.05 -0.01,-0.04 -0.02,-0.05 -0.01,-0.06 -0.02,-0.05 -0.01,-0.05 -0.03,-0.11 -0.03,-0.11 -0.03,-0.12 -0.02,-0.11 -0.02,-0.05 -0.01,-0.05 -0.01,-0.05 -0.01,-0.05 -0.01,-0.05 -0.01,-0.04 -0.01,-0.05 -0.01,-0.04 -0.01,-0.03 v -0.04 l -0.01,-0.03 v -0.03 l -0.01,-0.02 v -0.02 -0.01 -0.01 -0.01 0 c 0,-0.77 0.62,-1.11 1.18,-1.11 0.63,0 1.18,0.45 1.37,0.76 0.17,0.32 0.45,1.42 0.62,2.16 0.17,0.66 0.55,2.26 0.76,3.14 0.21,0.77 0.43,1.53 0.6,2.33 0.37,1.44 0.45,1.7 1.45,3.14 0.99,1.39 2.63,3.2 5.24,3.2 2.01,0 2.04,-1.78 2.04,-2.44 0,-2.09 -1.48,-5.95 -2.04,-7.42 -0.39,-0.98 -0.54,-1.29 -0.54,-1.89 0,-1.84 1.55,-2.98 3.32,-2.98 3.48,0 5.01,4.79 5.01,5.33 0,0.45 -0.45,0.45 -0.54,0.45 -0.5,0 -0.54,-0.2 -0.67,-0.6 -0.8,-2.78 -2.3,-4.21 -3.69,-4.21 -0.74,0 -0.88,0.48 -0.88,1.21 0,0.8 0.17,1.25 0.8,2.83 0.42,1.08 1.86,4.77 1.86,6.72 0,3.39 -2.69,3.97 -4.53,3.97 -2.89,0 -4.85,-1.77 -5.89,-3.16 -0.25,2.39 -2.3,3.16 -3.74,3.16 -1.5,0 -2.3,-1.08 -2.75,-1.87 -0.76,-1.29 -1.25,-3.29 -1.25,-3.46 0,-0.45 0.49,-0.45 0.6,-0.45 0.48,0 0.51,0.11 0.76,1.05 0.52,2.06 1.19,3.76 2.55,3.76 0.91,0 1.14,-0.76 1.14,-1.7 0,-0.67 -0.31,-1.95 -0.56,-2.89 -0.24,-0.96 -0.58,-2.38 -0.77,-3.14 z"
           id="path841"
           inkscape:connector-curvature="0"
           style="fill:#000000;stroke-width:0" /><path
           d="m 643.1,351.68 -0.4,-0.31 -0.38,-0.31 -0.36,-0.32 -0.33,-0.32 -0.32,-0.32 -0.3,-0.33 -0.28,-0.33 -0.26,-0.33 -0.24,-0.33 -0.23,-0.33 -0.21,-0.32 -0.19,-0.32 -0.18,-0.32 -0.17,-0.31 -0.15,-0.3 -0.14,-0.29 -0.12,-0.29 -0.11,-0.27 -0.1,-0.27 -0.09,-0.25 -0.08,-0.24 -0.07,-0.22 -0.06,-0.21 -0.05,-0.19 -0.04,-0.17 -0.04,-0.15 -0.03,-0.14 -0.02,-0.11 -0.01,-0.09 -0.02,-0.07 v -0.04 -0.02 c 0,-0.51 0.34,-0.51 0.83,-0.51 0.62,0 0.73,0 0.9,0.59 0.22,0.88 0.77,3.1 2.58,5.02 2.03,2.12 3.77,2.65 5.23,3.11 0.21,0.06 0.35,0.26 0.35,0.45 0,0.34 -0.21,0.41 -0.66,0.55 -5.01,1.61 -6.8,5.15 -7.53,8.22 -0.14,0.42 -0.39,0.42 -0.87,0.42 -0.49,0 -0.83,0 -0.83,-0.52 0,-0.08 0.34,-2.4 2.04,-4.81 0.82,-1.19 1.79,-2.16 2.94,-3 h -27.98 c -0.57,0 -1.39,0 -1.39,-0.83 0,-0.87 0.79,-0.87 1.39,-0.87 z"
           id="path843"
           inkscape:connector-curvature="0"
           style="fill:#000000;stroke-width:0" /><path
           d="m 670.9,353.35 -0.17,0.2 -0.16,0.18 -0.16,0.18 -0.15,0.18 -0.14,0.16 -0.14,0.16 -0.13,0.15 -0.13,0.14 -0.12,0.14 -0.12,0.13 -0.11,0.13 -0.11,0.11 -0.11,0.12 -0.11,0.11 -0.1,0.11 -0.1,0.1 -0.2,0.19 -0.2,0.19 -0.19,0.17 -0.2,0.17 -0.21,0.16 -0.21,0.17 -0.11,0.08 -0.12,0.08 -0.11,0.09 -0.13,0.09 c -2.12,1.54 -4.34,2.12 -6.26,2.12 -4.33,0 -7.45,-3.69 -7.45,-7.87 h 0.96 c 0,3.35 2.72,5.96 5.93,5.96 3.25,0 5.46,-2.65 8.81,-6.68 v 0 c -1.39,-2.27 -4.42,-5.8 -8.67,-5.8 -3.6,0 -6.07,3.17 -6.07,6.52 h -0.96 c 0,-4.07 2.98,-7.83 7.34,-7.83 4.84,0 8.23,3.97 9.48,5.81 1.85,-2.16 2.41,-2.75 3.72,-3.69 2.13,-1.53 4.36,-2.12 6.28,-2.12 4.32,0 7.46,3.68 7.46,7.87 h -0.97 c 0,-3.34 -2.72,-5.97 -5.92,-5.97 -3.25,0 -5.49,2.66 -8.83,6.71 v 0 c 1.4,2.25 4.44,5.78 8.69,5.78 3.57,0 6.06,-3.17 6.06,-6.52 h 0.97 c 0,4.08 -3,7.83 -7.35,7.83 -4.84,0 -8.23,-3.97 -9.48,-5.81 z"
           id="path845"
           inkscape:connector-curvature="0"
           style="fill:#000000;stroke-width:0" /><path
           d="m 727.01,438.15 -0.01,-0.04 -0.02,-0.05 -0.01,-0.05 -0.01,-0.04 -0.02,-0.05 -0.01,-0.06 -0.02,-0.05 -0.01,-0.05 -0.03,-0.11 -0.03,-0.11 -0.03,-0.12 -0.02,-0.11 -0.02,-0.05 -0.01,-0.05 -0.01,-0.05 -0.01,-0.05 -0.01,-0.05 -0.01,-0.04 -0.01,-0.05 -0.01,-0.04 -0.01,-0.03 v -0.04 l -0.01,-0.03 v -0.03 l -0.01,-0.02 v -0.02 -0.01 -0.01 -0.01 0 c 0,-0.77 0.62,-1.11 1.18,-1.11 0.63,0 1.18,0.45 1.37,0.76 0.17,0.32 0.45,1.42 0.62,2.16 0.17,0.66 0.55,2.26 0.76,3.14 0.21,0.77 0.43,1.53 0.6,2.33 0.37,1.44 0.45,1.7 1.45,3.14 0.99,1.39 2.63,3.2 5.24,3.2 2.01,0 2.04,-1.78 2.04,-2.44 0,-2.09 -1.48,-5.95 -2.04,-7.42 -0.39,-0.98 -0.54,-1.29 -0.54,-1.89 0,-1.84 1.55,-2.98 3.32,-2.98 3.48,0 5.01,4.79 5.01,5.33 0,0.45 -0.45,0.45 -0.54,0.45 -0.5,0 -0.54,-0.2 -0.67,-0.6 -0.8,-2.78 -2.3,-4.21 -3.69,-4.21 -0.74,0 -0.88,0.48 -0.88,1.21 0,0.8 0.17,1.25 0.8,2.83 0.42,1.08 1.86,4.77 1.86,6.72 0,3.39 -2.69,3.97 -4.53,3.97 -2.89,0 -4.85,-1.77 -5.89,-3.16 -0.25,2.39 -2.3,3.16 -3.74,3.16 -1.5,0 -2.3,-1.08 -2.75,-1.87 -0.76,-1.29 -1.25,-3.29 -1.25,-3.46 0,-0.45 0.49,-0.45 0.6,-0.45 0.48,0 0.51,0.11 0.76,1.05 0.52,2.06 1.19,3.76 2.55,3.76 0.91,0 1.14,-0.76 1.14,-1.7 0,-0.67 -0.31,-1.95 -0.56,-2.89 -0.24,-0.96 -0.58,-2.38 -0.77,-3.14 z"
           id="path847"
           inkscape:connector-curvature="0"
           style="fill:#000000;stroke-width:0" /><path
           d="m 762.2,351.33 6.03,15.94 h -1.25 c -1.95,-5.18 -7.23,-8.57 -12.95,-10.07 -1.05,-0.25 -5.94,-1.54 -15.5,-1.54 h -30.05 l 25.36,29.75 c 0.36,0.39 0.45,0.54 0.45,0.79 0,0.1 0,0.25 -0.34,0.75 l -23.22,31.74 h 27.3 c 6.69,0 11.22,-0.71 11.65,-0.8 2.71,-0.41 7.04,-1.25 10.97,-3.73 1.25,-0.8 4.63,-3.05 6.33,-7.08 h 1.25 l -6.03,14 h -58.89 c -1.14,0 -1.21,-0.05 -1.34,-0.35 -0.05,-0.15 -0.05,-1.09 -0.05,-1.65 l 26.34,-36.06 -25.79,-30.25 c -0.5,-0.6 -0.5,-0.85 -0.5,-0.89 0,-0.55 0.43,-0.55 1.34,-0.55 z"
           id="path849"
           inkscape:connector-curvature="0"
           style="fill:#000000;stroke-width:0" /><path
           d="m 709.67,336.94 v 0 0.01 0 0.01 h 0.01 v 0.01 0 0.01 l 0.01,0.01 v 0.01 0.01 l 0.01,0.02 v 0.02 l 0.01,0.02 v 0.02 l 0.01,0.02 0.01,0.02 v 0.03 l 0.01,0.02 0.01,0.05 0.01,0.04 0.01,0.03 v 0.02 l 0.01,0.02 v 0.02 l 0.01,0.02 v 0.02 l 0.01,0.02 v 0.01 0.01 0.01 0 0.01 h 0.01 v 0.01 0 0.01 0 0 0.01 0 c 0,0.19 -0.14,0.5 -0.56,0.5 -0.69,0 -3.58,-0.28 -4.46,-0.36 -0.28,-0.03 -0.76,-0.06 -0.76,-0.8 0,-0.48 0.48,-0.48 0.9,-0.48 1.67,0 1.67,-0.25 1.67,-0.53 0,-0.24 -0.07,-0.46 -0.13,-0.77 l -4.93,-19.72 c -0.17,-0.62 -0.17,-0.69 -0.17,-0.76 0,-0.52 0.42,-1.11 1.19,-1.11 0.94,0 1.39,0.68 1.61,1.45 0.06,0.14 1.56,6.28 1.7,6.77 2.47,-0.25 4.45,-1.05 4.45,-2.86 0,-0.18 0,-0.35 -0.06,-0.69 -0.14,-0.53 -0.14,-0.7 -0.14,-1.09 0,-2.47 2.02,-3.58 3.69,-3.58 3.39,0 4.44,5.29 4.44,5.33 0,0.45 -0.46,0.45 -0.57,0.45 -0.48,0 -0.53,-0.17 -0.7,-0.85 -0.41,-1.5 -1.36,-3.96 -3.06,-3.96 -0.94,0 -1.22,0.87 -1.22,1.81 0,0.59 0,0.65 0.2,1.56 0.05,0.11 0.19,0.7 0.19,1.09 0,3.1 -4.19,3.58 -5.66,3.69 1.02,0.63 2.3,1.78 2.89,2.3 1.78,1.67 3.53,3.31 5.47,3.31 0.43,0 0.88,-0.11 1.16,-0.45 -1.5,-0.25 -1.81,-1.42 -1.81,-1.95 0,-0.77 0.59,-1.29 1.39,-1.29 0.95,0 1.98,0.77 1.98,2.22 0,1.16 -0.83,2.44 -2.67,2.44 -1.99,0 -3.8,-1.42 -5.58,-3.06 -1.47,-1.39 -2.61,-2.47 -4.04,-3.06 z"
           id="path851"
           inkscape:connector-curvature="0"
           style="fill:#000000;stroke-width:0" /><path
           d="m 747.48,325.5 h 0.05 0.05 0.06 l 0.05,0.01 h 0.11 0.05 l 0.06,0.01 h 0.05 l 0.06,0.01 0.05,0.01 0.06,0.01 0.05,0.01 0.05,0.02 0.05,0.01 0.05,0.02 0.05,0.03 0.05,0.02 0.04,0.03 0.05,0.03 0.04,0.03 0.04,0.04 0.03,0.04 0.02,0.02 0.01,0.02 0.02,0.03 0.01,0.02 0.02,0.03 0.01,0.02 0.01,0.03 0.01,0.03 0.01,0.03 0.01,0.03 0.01,0.03 0.01,0.04 v 0.03 l 0.01,0.03 v 0.04 0.04 l 0.01,0.04 v 0.04 c 0,0.84 -0.83,0.84 -1.28,0.84 h -23.07 c -0.45,0 -1.29,0 -1.29,-0.84 0,-0.88 0.79,-0.88 1.32,-0.88 z"
           id="path853"
           inkscape:connector-curvature="0"
           style="fill:#000000;stroke-width:0" /><path
           d="m 747.52,317.85 h 0.04 0.05 0.04 0.05 0.05 0.05 l 0.05,0.01 h 0.06 l 0.05,0.01 h 0.05 l 0.06,0.01 0.05,0.01 0.05,0.01 0.06,0.02 0.05,0.01 0.05,0.02 0.05,0.02 0.04,0.03 0.05,0.02 0.04,0.03 0.04,0.03 0.04,0.04 0.04,0.04 0.01,0.02 0.02,0.02 0.02,0.02 0.01,0.02 0.01,0.03 0.02,0.02 0.01,0.03 0.01,0.03 0.01,0.02 0.01,0.03 0.01,0.03 0.01,0.03 v 0.04 l 0.01,0.03 v 0.03 0.04 l 0.01,0.04 v 0.04 c 0,0.87 -0.8,0.87 -1.32,0.87 h -23 c -0.53,0 -1.32,0 -1.32,-0.87 0,-0.83 0.84,-0.83 1.29,-0.83 z"
           id="path855"
           inkscape:connector-curvature="0"
           style="fill:#000000;stroke-width:0" /><path
           d="m 762.99,335.96 v 0.04 0.04 0.05 0.04 0.03 0.04 l -0.01,0.04 v 0.03 0.04 0.03 0.03 0.03 l -0.01,0.03 v 0.03 0.03 l -0.01,0.02 v 0.03 l -0.01,0.02 v 0.03 l -0.01,0.02 -0.01,0.04 -0.01,0.04 -0.02,0.03 -0.02,0.03 -0.02,0.03 -0.03,0.03 -0.02,0.02 -0.03,0.02 -0.04,0.02 -0.03,0.01 -0.05,0.01 -0.04,0.01 -0.02,0.01 h -0.03 l -0.02,0.01 h -0.03 -0.03 l -0.03,0.01 h -0.03 -0.03 -0.03 l -0.03,0.01 h -0.04 -0.03 -0.04 -0.04 -0.03 -0.04 -0.05 -0.04 -0.04 -0.05 c -2.23,-2.2 -5.39,-2.23 -6.83,-2.23 v -1.25 c 0.85,0 3.14,0 5.05,0.97 v -17.77 c 0,-1.16 0,-1.61 -3.48,-1.61 h -1.32 v -1.25 c 0.63,0.03 4.91,0.14 6.21,0.14 1.08,0 5.46,-0.11 6.23,-0.14 v 1.25 h -1.33 c -3.48,0 -3.48,0.45 -3.48,1.61 z"
           id="path857"
           inkscape:connector-curvature="0"
           style="fill:#000000;stroke-width:0" /><path
           d="m 812.64,439.29 v 0.05 0.06 0.05 0.05 0.05 0.05 0.04 0.05 0.04 0.04 0.04 l -0.01,0.04 v 0.04 0.03 0.04 l -0.01,0.03 v 0.07 l -0.01,0.06 -0.02,0.05 -0.01,0.05 -0.02,0.05 -0.01,0.04 -0.03,0.04 -0.02,0.03 -0.03,0.03 -0.03,0.03 -0.04,0.03 -0.04,0.02 -0.04,0.02 -0.03,0.01 h -0.02 l -0.03,0.01 -0.02,0.01 h -0.03 l -0.03,0.01 -0.03,0.01 h -0.03 -0.04 l -0.03,0.01 h -0.04 -0.03 l -0.04,0.01 h -0.04 -0.05 -0.04 -0.04 -0.05 l -0.05,0.01 h -0.05 -0.05 -0.05 c -3.09,-3.19 -7.47,-3.19 -9.06,-3.19 v -1.55 c 1,0 3.94,0 6.51,1.3 v -25.81 c 0,-1.8 -0.14,-2.39 -4.62,-2.39 h -1.6 v -1.55 c 1.75,0.15 6.08,0.15 8.07,0.15 2,0 6.32,0 8.08,-0.15 v 1.55 h -1.6 c -4.48,0 -4.64,0.54 -4.64,2.39 z"
           id="path859"
           inkscape:connector-curvature="0"
           style="fill:#000000;stroke-width:0" /><polyline
           points="786,385 835.92,385 835.92,387.04 786,387.04 "
           id="polyline861"
           style="fill:#000000;fill-rule:nonzero;stroke-width:0" /><path
           d="m 799.82,373.63 v 0.01 0 0.01 0.01 l -0.01,0.01 v 0.01 0.02 0.02 0.02 l -0.01,0.02 v 0.02 l -0.01,0.02 -0.01,0.03 -0.01,0.02 -0.01,0.02 -0.01,0.03 -0.01,0.02 -0.02,0.03 -0.02,0.02 -0.02,0.03 -0.02,0.02 -0.01,0.01 -0.01,0.01 -0.02,0.01 -0.01,0.01 -0.02,0.01 -0.01,0.01 -0.02,0.01 -0.01,0.01 -0.02,0.01 -0.02,0.01 -0.02,0.01 h -0.02 l -0.02,0.01 -0.02,0.01 h -0.02 l -0.02,0.01 h -0.03 l -0.02,0.01 h -0.03 -0.02 l -0.03,0.01 h -0.03 -0.02 -0.03 c -1.16,0 -4.78,-0.41 -6.08,-0.5 -0.41,-0.05 -0.95,-0.09 -0.95,-1 0,-0.59 0.45,-0.59 1.2,-0.59 2.39,0 2.48,-0.35 2.48,-0.85 l -0.15,-1 -7.22,-28.7 c -0.21,-0.69 -0.21,-0.8 -0.21,-1.09 0,-1.15 1,-1.4 1.46,-1.4 0.64,0 1.39,0.46 1.69,1.05 0.25,0.45 2.5,9.66 2.79,10.91 1.69,-0.14 5.78,-0.94 5.78,-4.24 0,-0.34 0,-0.54 -0.15,-1.04 -0.1,-0.6 -0.21,-1.19 -0.21,-1.74 0,-2.95 2,-4.94 4.6,-4.94 1.48,0 2.82,0.8 3.94,2.65 1.23,2.18 1.78,4.93 1.78,5.03 0,0.5 -0.44,0.5 -0.6,0.5 -0.5,0 -0.55,-0.21 -0.7,-0.91 -0.98,-3.62 -2.14,-6.17 -4.33,-6.17 -0.94,0 -1.59,0.55 -1.59,2.34 0,0.85 0.2,1.99 0.4,2.78 0.19,0.86 0.19,1.05 0.19,1.55 0,3.25 -3.14,4.69 -7.37,5.23 1.54,0.91 3.14,2.5 4.29,3.69 2.39,2.64 4.68,4.78 7.13,4.78 0.3,0 0.34,0 0.43,-0.04 0.62,-0.1 0.66,-0.1 1.05,-0.39 0.11,-0.07 0.11,-0.11 0.2,-0.21 -2.38,-0.15 -2.84,-2.09 -2.84,-2.68 0,-0.8 0.55,-1.75 1.89,-1.75 1.3,0 2.75,1.09 2.75,3.03 0,1.5 -1.15,3.14 -3.39,3.14 -1.39,0 -3.69,-0.39 -7.28,-4.38 -1.69,-1.89 -3.63,-3.89 -5.51,-4.64 z"
           id="path863"
           inkscape:connector-curvature="0"
           style="fill:#000000;stroke-width:0" /><path
           d="m 830.59,360.34 h -1.18 c -0.1,-0.76 -0.46,-2.82 -0.91,-3.17 -0.27,-0.2 -2.95,-0.2 -3.44,-0.2 h -6.42 c 3.66,3.23 4.88,4.2 6.97,5.84 2.58,2.07 4.98,4.22 4.98,7.53 0,4.22 -3.68,6.8 -8.15,6.8 -4.32,0 -7.25,-3.03 -7.25,-6.23 0,-1.79 1.5,-1.96 1.86,-1.96 0.83,0 1.84,0.6 1.84,1.85 0,0.62 -0.25,1.84 -2.06,1.84 1.08,2.47 3.45,3.24 5.09,3.24 3.49,0 5.3,-2.71 5.3,-5.54 0,-3.03 -2.16,-5.43 -3.28,-6.68 l -8.39,-8.3 c -0.36,-0.31 -0.36,-0.39 -0.36,-1.36 h 14.36 z"
           id="path865"
           inkscape:connector-curvature="0"
           style="fill:#000000;stroke-width:0" /></g>    </g>
    <g
       id="g980">
      <g
         word-spacing="normal"
         letter-spacing="normal"
         font-size-adjust="none"
         font-stretch="normal"
         font-weight="normal"
         font-variant="normal"
         font-style="normal"
         stroke-miterlimit="10.433"
         xml:space="preserve"
         transform="matrix(0.14179465,0,0,-0.14179465,-24.814064,120.45)"
         id="g978"
         style="font-style:normal;font-variant:normal;font-weight:normal;font-stretch:normal;letter-spacing:normal;word-spacing:normal;text-anchor:start;fill:none;fill-opacity:1;fill-rule:evenodd;stroke:#000000;stroke-linecap:butt;stroke-linejoin:miter;stroke-miterlimit:10.43299961;stroke-dasharray:none;stroke-dashoffset:0;stroke-opacity:1"><path
           id="path932"
           d="m 474.72,425.98 h 5.63 c -1.64,-7.38 -2.1,-9.52 -2.1,-12.85 0,-0.75 0,-2.09 0.41,-3.79 0.5,-2.19 1.05,-2.49 1.8,-2.49 0.98,0 2.03,0.89 2.03,1.89 0,0.3 0,0.41 -0.3,1.1 -1.44,3.59 -1.44,6.82 -1.44,8.21 0,2.65 0.35,5.35 0.89,7.93 h 5.69 c 0.64,0 2.44,0 2.44,1.7 0,1.19 -1.05,1.19 -2,1.19 h -16.69 c -1.09,0 -2.98,0 -5.17,-2.35 -1.75,-1.93 -3.05,-4.23 -3.05,-4.48 0,-0.05 0,-0.49 0.6,-0.49 0.4,0 0.5,0.19 0.79,0.6 2.46,3.83 5.35,3.83 6.33,3.83 h 2.85 c -1.6,-6.02 -4.29,-12.05 -6.38,-16.58 -0.41,-0.75 -0.41,-0.86 -0.41,-1.2 0,-0.96 0.8,-1.35 1.46,-1.35 1.5,0 1.89,1.39 2.48,3.24 0.71,2.29 0.71,2.39 1.35,4.89 z"
           inkscape:connector-curvature="0"
           style="fill:#000000;stroke-width:0" /><path
           id="path934"
           d="m 509.36,431.86 h -1.19 c -0.1,-0.76 -0.46,-2.82 -0.91,-3.17 -0.26,-0.2 -2.95,-0.2 -3.44,-0.2 h -6.42 c 3.66,3.23 4.88,4.2 6.97,5.84 2.58,2.06 4.99,4.22 4.99,7.53 0,4.22 -3.69,6.8 -8.16,6.8 -4.31,0 -7.25,-3.03 -7.25,-6.23 0,-1.79 1.5,-1.96 1.86,-1.96 0.83,0 1.84,0.6 1.84,1.85 0,0.62 -0.25,1.84 -2.06,1.84 1.08,2.47 3.45,3.23 5.09,3.23 3.49,0 5.3,-2.7 5.3,-5.53 0,-3.03 -2.16,-5.43 -3.28,-6.68 l -8.39,-8.3 c -0.36,-0.31 -0.36,-0.39 -0.36,-1.36 h 14.36 z"
           inkscape:connector-curvature="0"
           style="fill:#000000;stroke-width:0" /><polyline
           id="polyline936"
           points="462,385 514.56,385 514.56,387.04 462,387.04 "
           style="fill:#000000;fill-rule:nonzero;stroke-width:0" /><path
           id="path938"
           d="m 481.9,355.95 v 1.18 c 0,12.61 6.17,14.41 8.72,14.41 1.18,0 3.28,-0.3 4.37,-2 -0.73,0 -2.73,0 -2.73,-2.24 0,-1.54 1.2,-2.29 2.29,-2.29 0.8,0 2.29,0.45 2.29,2.39 0,3 -2.19,5.39 -6.32,5.39 -6.39,0 -13.11,-6.44 -13.11,-17.44 0,-13.31 5.79,-16.84 10.41,-16.84 5.53,0 10.27,4.69 10.27,11.25 0,6.33 -4.44,11.12 -9.97,11.12 l -0.05,-1.15 c 0.8,0 3.09,0 4.64,-3.1 0.89,-1.83 0.89,-4.37 0.89,-6.81 0,-2.39 0,-4.89 -0.84,-6.69 -1.5,-2.98 -3.78,-3.23 -4.94,-3.23 v 0 c -3.14,0 -4.62,2.98 -4.92,3.73 -0.91,2.35 -0.91,6.33 -0.91,7.24 0,3.87 1.6,8.86 6.08,8.86 l 0.05,1.15 c -3.38,0 -5.22,-2.54 -6.22,-4.93 z"
           inkscape:connector-curvature="0"
           style="fill:#000000;stroke-width:0" /><path
           id="path940"
           d="m 568.11,389.98 h 0.14 0.15 0.14 l 0.07,0.01 h 0.08 l 0.07,0.01 0.07,0.01 0.07,0.01 0.07,0.01 0.07,0.01 0.06,0.02 0.07,0.02 0.06,0.02 0.06,0.02 0.06,0.03 0.06,0.03 0.05,0.04 0.05,0.04 0.05,0.04 0.04,0.04 0.04,0.05 0.02,0.03 0.02,0.03 0.01,0.02 0.02,0.03 0.01,0.04 0.02,0.03 0.01,0.03 0.01,0.04 0.01,0.03 0.01,0.04 v 0.04 l 0.01,0.04 v 0.04 l 0.01,0.04 v 0.05 0.04 c 0,1 -0.95,1 -1.64,1 h -29.84 c -0.71,0 -1.64,0 -1.64,-1 0,-0.98 0.93,-0.98 1.68,-0.98 z"
           inkscape:connector-curvature="0"
           style="fill:#000000;stroke-width:0" /><path
           id="path942"
           d="m 568.16,380.3 0.07,0.01 h 0.06 0.14 0.14 l 0.07,0.01 h 0.07 l 0.07,0.01 0.07,0.01 0.06,0.01 0.07,0.01 0.07,0.01 0.06,0.02 0.07,0.02 0.06,0.02 0.06,0.02 0.06,0.03 0.05,0.03 0.05,0.04 0.05,0.04 0.05,0.04 0.04,0.05 0.02,0.02 0.02,0.03 0.02,0.02 0.02,0.03 0.01,0.03 0.02,0.03 0.01,0.03 0.02,0.04 0.01,0.03 0.01,0.03 0.01,0.04 0.01,0.04 v 0.04 l 0.01,0.04 v 0.04 l 0.01,0.04 v 0.05 0.04 c 0,1 -0.95,1 -1.69,1 h -29.75 c -0.75,0 -1.68,0 -1.68,-1 0,-1 0.93,-1 1.64,-1 z"
           inkscape:connector-curvature="0"
           style="fill:#000000;stroke-width:0" /><path
           id="path944"
           d="m 612.65,408.26 -7.17,-0.55 v -1.55 c 3.48,0 3.89,-0.34 3.89,-2.79 v -25.91 c 0,-2.23 -0.55,-2.23 -3.89,-2.23 v -1.55 c 1.64,0.05 4.28,0.16 5.53,0.16 1.25,0 3.69,-0.11 5.53,-0.16 v 1.55 c -3.34,0 -3.89,0 -3.89,2.23 z"
           inkscape:connector-curvature="0"
           style="fill:#000000;stroke-width:0" /><path
           id="path946"
           d="m 626.45,395.7 -6.97,-0.55 v -1.55 c 3.23,0 3.68,-0.3 3.68,-2.73 v -13.41 c 0,-2.23 -0.54,-2.23 -3.89,-2.23 v -1.55 c 1.6,0.05 4.28,0.16 5.49,0.16 1.75,0 3.48,-0.11 5.19,-0.16 v 1.55 c -3.3,0 -3.5,0.25 -3.5,2.18 z"
           inkscape:connector-curvature="0"
           style="fill:#000000;stroke-width:0" /><path
           id="path948"
           d="m 626.65,404.37 -0.01,0.14 -0.01,0.15 -0.01,0.14 -0.03,0.14 -0.03,0.13 -0.04,0.13 -0.04,0.13 -0.05,0.12 -0.05,0.12 -0.06,0.12 -0.07,0.11 -0.07,0.1 -0.08,0.11 -0.08,0.09 -0.08,0.1 -0.09,0.09 -0.09,0.08 -0.1,0.08 -0.1,0.07 -0.11,0.07 -0.1,0.07 -0.11,0.06 -0.12,0.05 -0.11,0.05 -0.12,0.04 -0.12,0.04 -0.12,0.03 -0.13,0.03 -0.13,0.02 -0.12,0.02 h -0.13 l -0.13,0.01 c -1.55,0 -2.64,-1.35 -2.64,-2.64 0,-1.35 1.09,-2.64 2.64,-2.64 1.39,0 2.64,1.04 2.64,2.64 z"
           inkscape:connector-curvature="0"
           style="fill:#000000;stroke-width:0" /><path
           id="path950"
           d="m 636.91,390.82 v -13.36 c 0,-2.23 -0.54,-2.23 -3.89,-2.23 v -1.55 c 1.75,0.05 4.28,0.16 5.63,0.16 1.3,0 3.89,-0.11 5.58,-0.16 v 1.55 c -3.33,0 -3.88,0 -3.88,2.23 v 9.17 c 0,5.19 3.53,7.97 6.72,7.97 3.14,0 3.69,-2.69 3.69,-5.53 v -11.61 c 0,-2.23 -0.55,-2.23 -3.89,-2.23 v -1.55 c 1.75,0.05 4.29,0.16 5.64,0.16 1.29,0 3.87,-0.11 5.58,-0.16 v 1.55 c -3.35,0 -3.89,0 -3.89,2.23 v 9.17 c 0,5.19 3.54,7.97 6.73,7.97 3.14,0 3.69,-2.69 3.69,-5.53 v -11.61 c 0,-2.23 -0.55,-2.23 -3.89,-2.23 v -1.55 c 1.73,0.05 4.28,0.16 5.62,0.16 1.3,0 3.89,-0.11 5.58,-0.16 v 1.55 c -2.58,0 -3.83,0 -3.88,1.5 v 9.51 c 0,4.28 0,5.83 -1.54,7.61 -0.71,0.86 -2.35,1.85 -5.24,1.85 -4.18,0 -6.37,-2.99 -7.22,-4.88 -0.7,4.33 -4.39,4.88 -6.62,4.88 -3.64,0 -5.98,-2.15 -7.38,-5.22 v 5.22 l -7.03,-0.55 v -1.55 c 3.49,0 3.89,-0.34 3.89,-2.78 z"
           inkscape:connector-curvature="0"
           style="fill:#000000;stroke-width:0" /><path
           id="path952"
           d="m 590.69,345.99 -0.01,-0.04 -0.02,-0.05 -0.01,-0.05 -0.01,-0.04 -0.02,-0.05 -0.01,-0.06 -0.02,-0.05 -0.01,-0.05 -0.03,-0.11 -0.03,-0.11 -0.03,-0.12 -0.02,-0.11 -0.02,-0.05 -0.01,-0.05 -0.01,-0.05 -0.01,-0.05 -0.01,-0.05 -0.01,-0.04 -0.01,-0.05 -0.01,-0.04 -0.01,-0.03 v -0.04 l -0.01,-0.03 v -0.03 l -0.01,-0.02 v -0.02 -0.01 -0.01 -0.01 0 c 0,-0.77 0.62,-1.11 1.18,-1.11 0.63,0 1.18,0.45 1.37,0.76 0.17,0.32 0.45,1.42 0.62,2.16 0.17,0.66 0.55,2.26 0.76,3.14 0.21,0.77 0.43,1.53 0.6,2.33 0.37,1.44 0.45,1.7 1.45,3.14 0.99,1.39 2.63,3.2 5.24,3.2 2.01,0 2.04,-1.78 2.04,-2.44 0,-2.09 -1.48,-5.95 -2.04,-7.42 -0.39,-0.98 -0.54,-1.29 -0.54,-1.89 0,-1.84 1.55,-2.98 3.32,-2.98 3.48,0 5.01,4.79 5.01,5.33 0,0.45 -0.45,0.45 -0.54,0.45 -0.5,0 -0.54,-0.2 -0.67,-0.6 -0.8,-2.78 -2.3,-4.21 -3.69,-4.21 -0.74,0 -0.88,0.48 -0.88,1.21 0,0.8 0.17,1.25 0.8,2.83 0.42,1.08 1.86,4.77 1.86,6.72 0,3.39 -2.69,3.97 -4.53,3.97 -2.89,0 -4.85,-1.77 -5.89,-3.16 -0.25,2.39 -2.3,3.16 -3.74,3.16 -1.5,0 -2.3,-1.08 -2.75,-1.87 -0.76,-1.29 -1.25,-3.29 -1.25,-3.46 0,-0.45 0.49,-0.45 0.6,-0.45 0.48,0 0.51,0.11 0.76,1.05 0.52,2.06 1.19,3.76 2.55,3.76 0.91,0 1.14,-0.76 1.14,-1.7 0,-0.67 -0.31,-1.95 -0.56,-2.89 -0.24,-0.96 -0.58,-2.38 -0.77,-3.14 z"
           inkscape:connector-curvature="0"
           style="fill:#000000;stroke-width:0" /><path
           id="path954"
           d="m 643.1,351.68 -0.4,-0.31 -0.38,-0.31 -0.36,-0.32 -0.33,-0.32 -0.32,-0.32 -0.3,-0.33 -0.28,-0.33 -0.26,-0.33 -0.24,-0.33 -0.23,-0.33 -0.21,-0.32 -0.19,-0.32 -0.18,-0.32 -0.17,-0.31 -0.15,-0.3 -0.14,-0.29 -0.12,-0.29 -0.11,-0.27 -0.1,-0.27 -0.09,-0.25 -0.08,-0.24 -0.07,-0.22 -0.06,-0.21 -0.05,-0.19 -0.04,-0.17 -0.04,-0.15 -0.03,-0.14 -0.02,-0.11 -0.01,-0.09 -0.02,-0.07 v -0.04 -0.02 c 0,-0.51 0.34,-0.51 0.83,-0.51 0.62,0 0.73,0 0.9,0.59 0.22,0.88 0.77,3.1 2.58,5.02 2.03,2.12 3.77,2.65 5.23,3.11 0.21,0.06 0.35,0.26 0.35,0.45 0,0.34 -0.21,0.41 -0.66,0.55 -5.01,1.61 -6.8,5.15 -7.53,8.22 -0.14,0.42 -0.39,0.42 -0.87,0.42 -0.49,0 -0.83,0 -0.83,-0.52 0,-0.08 0.34,-2.4 2.04,-4.81 0.82,-1.19 1.79,-2.16 2.94,-3 h -27.98 c -0.57,0 -1.39,0 -1.39,-0.83 0,-0.87 0.79,-0.87 1.39,-0.87 z"
           inkscape:connector-curvature="0"
           style="fill:#000000;stroke-width:0" /><path
           id="path956"
           d="m 670.9,353.35 -0.17,0.2 -0.16,0.18 -0.16,0.18 -0.15,0.18 -0.14,0.16 -0.14,0.16 -0.13,0.15 -0.13,0.14 -0.12,0.14 -0.12,0.13 -0.11,0.13 -0.11,0.11 -0.11,0.12 -0.11,0.11 -0.1,0.11 -0.1,0.1 -0.2,0.19 -0.2,0.19 -0.19,0.17 -0.2,0.17 -0.21,0.16 -0.21,0.17 -0.11,0.08 -0.12,0.08 -0.11,0.09 -0.13,0.09 c -2.12,1.54 -4.34,2.12 -6.26,2.12 -4.33,0 -7.45,-3.69 -7.45,-7.87 h 0.96 c 0,3.35 2.72,5.96 5.93,5.96 3.25,0 5.46,-2.65 8.81,-6.68 v 0 c -1.39,-2.27 -4.42,-5.8 -8.67,-5.8 -3.6,0 -6.07,3.17 -6.07,6.52 h -0.96 c 0,-4.07 2.98,-7.83 7.34,-7.83 4.84,0 8.23,3.97 9.48,5.81 1.85,-2.16 2.41,-2.75 3.72,-3.69 2.13,-1.53 4.36,-2.12 6.28,-2.12 4.32,0 7.46,3.68 7.46,7.87 h -0.97 c 0,-3.34 -2.72,-5.97 -5.92,-5.97 -3.25,0 -5.49,2.66 -8.83,6.71 v 0 c 1.4,2.25 4.44,5.78 8.69,5.78 3.57,0 6.06,-3.17 6.06,-6.52 h 0.97 c 0,4.08 -3,7.83 -7.35,7.83 -4.84,0 -8.23,-3.97 -9.48,-5.81 z"
           inkscape:connector-curvature="0"
           style="fill:#000000;stroke-width:0" /><path
           id="path958"
           d="m 727.01,438.15 -0.01,-0.04 -0.02,-0.05 -0.01,-0.05 -0.01,-0.04 -0.02,-0.05 -0.01,-0.06 -0.02,-0.05 -0.01,-0.05 -0.03,-0.11 -0.03,-0.11 -0.03,-0.12 -0.02,-0.11 -0.02,-0.05 -0.01,-0.05 -0.01,-0.05 -0.01,-0.05 -0.01,-0.05 -0.01,-0.04 -0.01,-0.05 -0.01,-0.04 -0.01,-0.03 v -0.04 l -0.01,-0.03 v -0.03 l -0.01,-0.02 v -0.02 -0.01 -0.01 -0.01 0 c 0,-0.77 0.62,-1.11 1.18,-1.11 0.63,0 1.18,0.45 1.37,0.76 0.17,0.32 0.45,1.42 0.62,2.16 0.17,0.66 0.55,2.26 0.76,3.14 0.21,0.77 0.43,1.53 0.6,2.33 0.37,1.44 0.45,1.7 1.45,3.14 0.99,1.39 2.63,3.2 5.24,3.2 2.01,0 2.04,-1.78 2.04,-2.44 0,-2.09 -1.48,-5.95 -2.04,-7.42 -0.39,-0.98 -0.54,-1.29 -0.54,-1.89 0,-1.84 1.55,-2.98 3.32,-2.98 3.48,0 5.01,4.79 5.01,5.33 0,0.45 -0.45,0.45 -0.54,0.45 -0.5,0 -0.54,-0.2 -0.67,-0.6 -0.8,-2.78 -2.3,-4.21 -3.69,-4.21 -0.74,0 -0.88,0.48 -0.88,1.21 0,0.8 0.17,1.25 0.8,2.83 0.42,1.08 1.86,4.77 1.86,6.72 0,3.39 -2.69,3.97 -4.53,3.97 -2.89,0 -4.85,-1.77 -5.89,-3.16 -0.25,2.39 -2.3,3.16 -3.74,3.16 -1.5,0 -2.3,-1.08 -2.75,-1.87 -0.76,-1.29 -1.25,-3.29 -1.25,-3.46 0,-0.45 0.49,-0.45 0.6,-0.45 0.48,0 0.51,0.11 0.76,1.05 0.52,2.06 1.19,3.76 2.55,3.76 0.91,0 1.14,-0.76 1.14,-1.7 0,-0.67 -0.31,-1.95 -0.56,-2.89 -0.24,-0.96 -0.58,-2.38 -0.77,-3.14 z"
           inkscape:connector-curvature="0"
           style="fill:#000000;stroke-width:0" /><path
           id="path960"
           d="m 762.2,351.33 6.03,15.94 h -1.25 c -1.95,-5.18 -7.23,-8.57 -12.95,-10.07 -1.05,-0.25 -5.94,-1.54 -15.5,-1.54 h -30.05 l 25.36,29.75 c 0.36,0.39 0.45,0.54 0.45,0.79 0,0.1 0,0.25 -0.34,0.75 l -23.22,31.74 h 27.3 c 6.69,0 11.22,-0.71 11.65,-0.8 2.71,-0.41 7.04,-1.25 10.97,-3.73 1.25,-0.8 4.63,-3.05 6.33,-7.08 h 1.25 l -6.03,14 h -58.89 c -1.14,0 -1.21,-0.05 -1.34,-0.35 -0.05,-0.15 -0.05,-1.09 -0.05,-1.65 l 26.34,-36.06 -25.79,-30.25 c -0.5,-0.6 -0.5,-0.85 -0.5,-0.89 0,-0.55 0.43,-0.55 1.34,-0.55 z"
           inkscape:connector-curvature="0"
           style="fill:#000000;stroke-width:0" /><path
           id="path962"
           d="m 709.67,336.94 v 0 0.01 0 0.01 h 0.01 v 0.01 0 0.01 l 0.01,0.01 v 0.01 0.01 l 0.01,0.02 v 0.02 l 0.01,0.02 v 0.02 l 0.01,0.02 0.01,0.02 v 0.03 l 0.01,0.02 0.01,0.05 0.01,0.04 0.01,0.03 v 0.02 l 0.01,0.02 v 0.02 l 0.01,0.02 v 0.02 l 0.01,0.02 v 0.01 0.01 0.01 0 0.01 h 0.01 v 0.01 0 0.01 0 0 0.01 0 c 0,0.19 -0.14,0.5 -0.56,0.5 -0.69,0 -3.58,-0.28 -4.46,-0.36 -0.28,-0.03 -0.76,-0.06 -0.76,-0.8 0,-0.48 0.48,-0.48 0.9,-0.48 1.67,0 1.67,-0.25 1.67,-0.53 0,-0.24 -0.07,-0.46 -0.13,-0.77 l -4.93,-19.72 c -0.17,-0.62 -0.17,-0.69 -0.17,-0.76 0,-0.52 0.42,-1.11 1.19,-1.11 0.94,0 1.39,0.68 1.61,1.45 0.06,0.14 1.56,6.28 1.7,6.77 2.47,-0.25 4.45,-1.05 4.45,-2.86 0,-0.18 0,-0.35 -0.06,-0.69 -0.14,-0.53 -0.14,-0.7 -0.14,-1.09 0,-2.47 2.02,-3.58 3.69,-3.58 3.39,0 4.44,5.29 4.44,5.33 0,0.45 -0.46,0.45 -0.57,0.45 -0.48,0 -0.53,-0.17 -0.7,-0.85 -0.41,-1.5 -1.36,-3.96 -3.06,-3.96 -0.94,0 -1.22,0.87 -1.22,1.81 0,0.59 0,0.65 0.2,1.56 0.05,0.11 0.19,0.7 0.19,1.09 0,3.1 -4.19,3.58 -5.66,3.69 1.02,0.63 2.3,1.78 2.89,2.3 1.78,1.67 3.53,3.31 5.47,3.31 0.43,0 0.88,-0.11 1.16,-0.45 -1.5,-0.25 -1.81,-1.42 -1.81,-1.95 0,-0.77 0.59,-1.29 1.39,-1.29 0.95,0 1.98,0.77 1.98,2.22 0,1.16 -0.83,2.44 -2.67,2.44 -1.99,0 -3.8,-1.42 -5.58,-3.06 -1.47,-1.39 -2.61,-2.47 -4.04,-3.06 z"
           inkscape:connector-curvature="0"
           style="fill:#000000;stroke-width:0" /><path
           id="path964"
           d="m 747.48,325.5 h 0.05 0.05 0.06 l 0.05,0.01 h 0.11 0.05 l 0.06,0.01 h 0.05 l 0.06,0.01 0.05,0.01 0.06,0.01 0.05,0.01 0.05,0.02 0.05,0.01 0.05,0.02 0.05,0.03 0.05,0.02 0.04,0.03 0.05,0.03 0.04,0.03 0.04,0.04 0.03,0.04 0.02,0.02 0.01,0.02 0.02,0.03 0.01,0.02 0.02,0.03 0.01,0.02 0.01,0.03 0.01,0.03 0.01,0.03 0.01,0.03 0.01,0.03 0.01,0.04 v 0.03 l 0.01,0.03 v 0.04 0.04 l 0.01,0.04 v 0.04 c 0,0.84 -0.83,0.84 -1.28,0.84 h -23.07 c -0.45,0 -1.29,0 -1.29,-0.84 0,-0.88 0.79,-0.88 1.32,-0.88 z"
           inkscape:connector-curvature="0"
           style="fill:#000000;stroke-width:0" /><path
           id="path966"
           d="m 747.52,317.85 h 0.04 0.05 0.04 0.05 0.05 0.05 l 0.05,0.01 h 0.06 l 0.05,0.01 h 0.05 l 0.06,0.01 0.05,0.01 0.05,0.01 0.06,0.02 0.05,0.01 0.05,0.02 0.05,0.02 0.04,0.03 0.05,0.02 0.04,0.03 0.04,0.03 0.04,0.04 0.04,0.04 0.01,0.02 0.02,0.02 0.02,0.02 0.01,0.02 0.01,0.03 0.02,0.02 0.01,0.03 0.01,0.03 0.01,0.02 0.01,0.03 0.01,0.03 0.01,0.03 v 0.04 l 0.01,0.03 v 0.03 0.04 l 0.01,0.04 v 0.04 c 0,0.87 -0.8,0.87 -1.32,0.87 h -23 c -0.53,0 -1.32,0 -1.32,-0.87 0,-0.83 0.84,-0.83 1.29,-0.83 z"
           inkscape:connector-curvature="0"
           style="fill:#000000;stroke-width:0" /><path
           id="path968"
           d="m 762.99,335.96 v 0.04 0.04 0.05 0.04 0.03 0.04 l -0.01,0.04 v 0.03 0.04 0.03 0.03 0.03 l -0.01,0.03 v 0.03 0.03 l -0.01,0.02 v 0.03 l -0.01,0.02 v 0.03 l -0.01,0.02 -0.01,0.04 -0.01,0.04 -0.02,0.03 -0.02,0.03 -0.02,0.03 -0.03,0.03 -0.02,0.02 -0.03,0.02 -0.04,0.02 -0.03,0.01 -0.05,0.01 -0.04,0.01 -0.02,0.01 h -0.03 l -0.02,0.01 h -0.03 -0.03 l -0.03,0.01 h -0.03 -0.03 -0.03 l -0.03,0.01 h -0.04 -0.03 -0.04 -0.04 -0.03 -0.04 -0.05 -0.04 -0.04 -0.05 c -2.23,-2.2 -5.39,-2.23 -6.83,-2.23 v -1.25 c 0.85,0 3.14,0 5.05,0.97 v -17.77 c 0,-1.16 0,-1.61 -3.48,-1.61 h -1.32 v -1.25 c 0.63,0.03 4.91,0.14 6.21,0.14 1.08,0 5.46,-0.11 6.23,-0.14 v 1.25 h -1.33 c -3.48,0 -3.48,0.45 -3.48,1.61 z"
           inkscape:connector-curvature="0"
           style="fill:#000000;stroke-width:0" /><path
           id="path970"
           d="m 812.64,439.29 v 0.05 0.06 0.05 0.05 0.05 0.05 0.04 0.05 0.04 0.04 0.04 l -0.01,0.04 v 0.04 0.03 0.04 l -0.01,0.03 v 0.07 l -0.01,0.06 -0.02,0.05 -0.01,0.05 -0.02,0.05 -0.01,0.04 -0.03,0.04 -0.02,0.03 -0.03,0.03 -0.03,0.03 -0.04,0.03 -0.04,0.02 -0.04,0.02 -0.03,0.01 h -0.02 l -0.03,0.01 -0.02,0.01 h -0.03 l -0.03,0.01 -0.03,0.01 h -0.03 -0.04 l -0.03,0.01 h -0.04 -0.03 l -0.04,0.01 h -0.04 -0.05 -0.04 -0.04 -0.05 l -0.05,0.01 h -0.05 -0.05 -0.05 c -3.09,-3.19 -7.47,-3.19 -9.06,-3.19 v -1.55 c 1,0 3.94,0 6.51,1.3 v -25.81 c 0,-1.8 -0.14,-2.39 -4.62,-2.39 h -1.6 v -1.55 c 1.75,0.15 6.08,0.15 8.07,0.15 2,0 6.32,0 8.08,-0.15 v 1.55 h -1.6 c -4.48,0 -4.64,0.54 -4.64,2.39 z"
           inkscape:connector-curvature="0"
           style="fill:#000000;stroke-width:0" /><polyline
           id="polyline972"
           points="786,385 835.92,385 835.92,387.04 786,387.04 "
           style="fill:#000000;fill-rule:nonzero;stroke-width:0" /><path
           id="path974"
           d="m 799.82,373.63 v 0.01 0 0.01 0.01 l -0.01,0.01 v 0.01 0.02 0.02 0.02 l -0.01,0.02 v 0.02 l -0.01,0.02 -0.01,0.03 -0.01,0.02 -0.01,0.02 -0.01,0.03 -0.01,0.02 -0.02,0.03 -0.02,0.02 -0.02,0.03 -0.02,0.02 -0.01,0.01 -0.01,0.01 -0.02,0.01 -0.01,0.01 -0.02,0.01 -0.01,0.01 -0.02,0.01 -0.01,0.01 -0.02,0.01 -0.02,0.01 -0.02,0.01 h -0.02 l -0.02,0.01 -0.02,0.01 h -0.02 l -0.02,0.01 h -0.03 l -0.02,0.01 h -0.03 -0.02 l -0.03,0.01 h -0.03 -0.02 -0.03 c -1.16,0 -4.78,-0.41 -6.08,-0.5 -0.41,-0.05 -0.95,-0.09 -0.95,-1 0,-0.59 0.45,-0.59 1.2,-0.59 2.39,0 2.48,-0.35 2.48,-0.85 l -0.15,-1 -7.22,-28.7 c -0.21,-0.69 -0.21,-0.8 -0.21,-1.09 0,-1.15 1,-1.4 1.46,-1.4 0.64,0 1.39,0.46 1.69,1.05 0.25,0.45 2.5,9.66 2.79,10.91 1.69,-0.14 5.78,-0.94 5.78,-4.24 0,-0.34 0,-0.54 -0.15,-1.04 -0.1,-0.6 -0.21,-1.19 -0.21,-1.74 0,-2.95 2,-4.94 4.6,-4.94 1.48,0 2.82,0.8 3.94,2.65 1.23,2.18 1.78,4.93 1.78,5.03 0,0.5 -0.44,0.5 -0.6,0.5 -0.5,0 -0.55,-0.21 -0.7,-0.91 -0.98,-3.62 -2.14,-6.17 -4.33,-6.17 -0.94,0 -1.59,0.55 -1.59,2.34 0,0.85 0.2,1.99 0.4,2.78 0.19,0.86 0.19,1.05 0.19,1.55 0,3.25 -3.14,4.69 -7.37,5.23 1.54,0.91 3.14,2.5 4.29,3.69 2.39,2.64 4.68,4.78 7.13,4.78 0.3,0 0.34,0 0.43,-0.04 0.62,-0.1 0.66,-0.1 1.05,-0.39 0.11,-0.07 0.11,-0.11 0.2,-0.21 -2.38,-0.15 -2.84,-2.09 -2.84,-2.68 0,-0.8 0.55,-1.75 1.89,-1.75 1.3,0 2.75,1.09 2.75,3.03 0,1.5 -1.15,3.14 -3.39,3.14 -1.39,0 -3.69,-0.39 -7.28,-4.38 -1.69,-1.89 -3.63,-3.89 -5.51,-4.64 z"
           inkscape:connector-curvature="0"
           style="fill:#000000;stroke-width:0" /><path
           id="path976"
           d="m 830.59,360.34 h -1.18 c -0.1,-0.76 -0.46,-2.82 -0.91,-3.17 -0.27,-0.2 -2.95,-0.2 -3.44,-0.2 h -6.42 c 3.66,3.23 4.88,4.2 6.97,5.84 2.58,2.07 4.98,4.22 4.98,7.53 0,4.22 -3.68,6.8 -8.15,6.8 -4.32,0 -7.25,-3.03 -7.25,-6.23 0,-1.79 1.5,-1.96 1.86,-1.96 0.83,0 1.84,0.6 1.84,1.85 0,0.62 -0.25,1.84 -2.06,1.84 1.08,2.47 3.45,3.24 5.09,3.24 3.49,0 5.3,-2.71 5.3,-5.54 0,-3.03 -2.16,-5.43 -3.28,-6.68 l -8.39,-8.3 c -0.36,-0.31 -0.36,-0.39 -0.36,-1.36 h 14.36 z"
           inkscape:connector-curvature="0"
           style="fill:#000000;stroke-width:0" /></g>    </g>
    <path
       style="fill:none;stroke:#000000;stroke-width:0.35277778;stroke-linecap:butt;stroke-linejoin:miter;stroke-miterlimit:4;stroke-dasharray:none;stroke-opacity:1"
       d="m 79.471419,292.77871 c 6.758747,3.15511 7.283697,-1.25116 7.480557,-4.95024 0.19686,-3.69909 4.06837,-7.12619 8.00551,-4.02548 3.937133,3.1007 8.464824,-1.74074 5.774454,-4.78705 -2.690368,-3.04631 -9.514734,-5.11345 -6.102544,-7.99655 3.412176,-2.88312 3.01847,-11.04287 -4.00276,-9.46532 -7.021224,1.57755 -6.496274,7.28938 -12.073883,4.13427 -5.57761,-3.1551 -1.968567,-8.15974 -6.2338,-8.64933 -4.265231,-0.48958 -4.658943,4.29747 -5.052657,6.31021 -0.393714,2.01273 -0.06562,6.09261 -1.640473,7.07178 -1.574855,0.97918 -4.527708,-2.82872 -7.349321,-2.33913 -2.821614,0.48959 -6.233799,3.69909 -3.477804,6.3646 2.755995,2.66552 8.202366,3.10071 9.645984,4.51507 1.443616,1.41435 0.984283,5.00464 -0.328096,6.74539 -1.312377,1.74075 0.787429,5.38544 4.724565,5.05904 3.937136,-0.32638 7.808653,-4.73265 8.59608,-2.28473 0.787428,2.44793 -0.745883,2.99969 2.034188,4.29747 z"
       id="path10512"
       inkscape:connector-curvature="0"
       sodipodi:nodetypes="ssscssscsccscscss" />
    <g
       id="layer2"
       inkscape:label="Layer 2"
       transform="translate(52.49463,333.56641)">
      <rect
         transform="translate(0,-209.73828)"
         style="fill:#d1d1d1;fill-opacity:1;stroke:none;stroke-width:0.35277778;stroke-linecap:butt;stroke-miterlimit:4;stroke-dasharray:none;stroke-dashoffset:0;stroke-opacity:1;paint-order:normal"
         id="rect2298"
         width="39.498512"
         height="21.26116"
         x="17.764881"
         y="275.45544"
         ry="3.3072915" />
    </g>
    <rect
       y="334.35071"
       x="74.44648"
       height="3.1981938"
       width="3.1981938"
       id="rect864"
       style="fill:#97e4a5;fill-opacity:1;stroke:#000000;stroke-width:0.35277778;stroke-linecap:butt;stroke-miterlimit:4;stroke-dasharray:none;stroke-dashoffset:0;stroke-opacity:1;paint-order:normal" />
    <circle
       r="1.7094934"
       cy="339.08578"
       cx="63.647335"
       id="path866"
       style="fill:#97c7e4;fill-opacity:1;stroke:#000000;stroke-width:0.35277778;stroke-linecap:butt;stroke-miterlimit:4;stroke-dasharray:none;stroke-dashoffset:0;stroke-opacity:1;paint-order:normal" />
    <rect
       y="358.47675"
       x="64.825386"
       height="3.1981938"
       width="3.1981938"
       id="rect864-9"
       style="fill:#97e4a5;fill-opacity:1;stroke:#000000;stroke-width:0.35277778;stroke-linecap:butt;stroke-miterlimit:4;stroke-dasharray:none;stroke-dashoffset:0;stroke-opacity:1;paint-order:normal" />
    <rect
       y="342.33057"
       x="97.803864"
       height="3.1981938"
       width="3.1981938"
       id="rect864-9-8"
       style="fill:#97e4a5;fill-opacity:1;stroke:#000000;stroke-width:0.35277778;stroke-linecap:butt;stroke-miterlimit:4;stroke-dasharray:none;stroke-dashoffset:0;stroke-opacity:1;paint-order:normal" />
    <circle
       r="1.7094934"
       cy="346.22995"
       cx="54.979259"
       id="path866-8"
       style="fill:#97c7e4;fill-opacity:1;stroke:#000000;stroke-width:0.35277778;stroke-linecap:butt;stroke-miterlimit:4;stroke-dasharray:none;stroke-dashoffset:0;stroke-opacity:1;paint-order:normal" />
    <circle
       r="1.7094934"
       cy="354.87003"
       cx="58.609196"
       id="path866-8-4"
       style="fill:#97c7e4;fill-opacity:1;stroke:#000000;stroke-width:0.35277778;stroke-linecap:butt;stroke-miterlimit:4;stroke-dasharray:none;stroke-dashoffset:0;stroke-opacity:1;paint-order:normal" />
    <circle
       r="1.7094934"
       cy="359.12225"
       cx="93.348618"
       id="path866-8-4-9-3"
       style="fill:#97c7e4;fill-opacity:1;stroke:#000000;stroke-width:0.35277778;stroke-linecap:butt;stroke-miterlimit:4;stroke-dasharray:none;stroke-dashoffset:0;stroke-opacity:1;paint-order:normal" />
    <circle
       r="1.7094934"
       cy="349.13354"
       cx="76.629875"
       id="path866-8-4-9-3-0"
       style="fill:#96e4a4;fill-opacity:1;stroke:#000000;stroke-width:0.35277778;stroke-linecap:butt;stroke-miterlimit:4;stroke-dasharray:none;stroke-dashoffset:0;stroke-opacity:1;paint-order:normal" />
    <circle
       r="1.7094934"
       cy="337.30838"
       cx="89.508759"
       id="path866-8-4-9-3-0-6"
       style="fill:#97c7e4;fill-opacity:1;stroke:#000000;stroke-width:0.35277778;stroke-linecap:butt;stroke-miterlimit:4;stroke-dasharray:none;stroke-dashoffset:0;stroke-opacity:1;paint-order:normal" />
    <path
       inkscape:connector-curvature="0"
       id="path1024"
       d="m 65.515353,338.67042 8.92969,-2.69308"
       style="fill:none;stroke:#000000;stroke-width:0.26458335px;stroke-linecap:butt;stroke-linejoin:miter;stroke-opacity:1" />
    <path
       inkscape:connector-curvature="0"
       id="path1026"
       d="m 62.255313,340.18233 -5.716884,4.86644"
       style="fill:none;stroke:#000000;stroke-width:0.26458335px;stroke-linecap:butt;stroke-linejoin:miter;stroke-opacity:1" />
    <path
       inkscape:connector-curvature="0"
       id="path1028"
       d="m 55.687975,347.93084 2.031618,5.29167"
       style="fill:none;stroke:#000000;stroke-width:0.26458335px;stroke-linecap:butt;stroke-linejoin:miter;stroke-opacity:1" />
    <path
       inkscape:connector-curvature="0"
       id="path1030"
       d="m 59.751213,356.24632 4.91369,3.40178"
       style="fill:none;stroke:#000000;stroke-width:0.26458335px;stroke-linecap:butt;stroke-linejoin:miter;stroke-opacity:1" />
    <path
       inkscape:connector-curvature="0"
       id="path1032"
       d="m 68.161193,359.45911 7.41778,-9.02418"
       style="fill:none;stroke:#000000;stroke-width:0.26458335px;stroke-linecap:butt;stroke-linejoin:miter;stroke-opacity:1" />
    <path
       inkscape:connector-curvature="0"
       id="path1034"
       d="m 68.161193,360.68753 12.00074,-2.64583"
       style="fill:none;stroke:#000000;stroke-width:0.26458335px;stroke-linecap:butt;stroke-linejoin:miter;stroke-opacity:1" />
    <path
       inkscape:connector-curvature="0"
       id="path1036"
       d="m 80.917883,355.49036 -3.26004,-5.14992"
       style="fill:none;stroke:#000000;stroke-width:0.26458335px;stroke-linecap:butt;stroke-linejoin:miter;stroke-opacity:1" />
    <path
       inkscape:connector-curvature="0"
       id="path1038"
       d="m 76.712903,347.41112 -0.23624,-9.73289"
       style="fill:none;stroke:#000000;stroke-width:0.26458335px;stroke-linecap:butt;stroke-linejoin:miter;stroke-opacity:1" />
    <path
       inkscape:connector-curvature="0"
       id="path1040"
       d="m 97.803843,345.52877 -14.52361,10.62305"
       style="fill:none;stroke:#000000;stroke-width:0.26458335px;stroke-linecap:butt;stroke-linejoin:miter;stroke-opacity:1" />
    <path
       inkscape:connector-curvature="0"
       id="path1042"
       d="m 77.846823,335.64661 9.92188,1.37017"
       style="fill:none;stroke:#000000;stroke-width:0.26458335px;stroke-linecap:butt;stroke-linejoin:miter;stroke-opacity:1" />
    <path
       inkscape:connector-curvature="0"
       id="path1044"
       d="m 91.075993,338.33969 6.72785,3.99088"
       style="fill:none;stroke:#000000;stroke-width:0.26458335px;stroke-linecap:butt;stroke-linejoin:miter;stroke-opacity:1" />
    <path
       inkscape:connector-curvature="0"
       id="path1056"
       d="m 83.418073,357.80972 8.15172,1.1359"
       style="fill:none;stroke:#000000;stroke-width:0.26458335px;stroke-linecap:butt;stroke-linejoin:miter;stroke-opacity:1" />
    <path
       inkscape:connector-curvature="0"
       id="path1058"
       d="M 95.111123,359.14607 105.8019,357.54245"
       style="fill:none;stroke:#000000;stroke-width:0.26458335px;stroke-linecap:butt;stroke-linejoin:miter;stroke-opacity:1" />
    <rect
       y="355.37265"
       x="80.161949"
       height="3.1981938"
       width="3.1981938"
       id="rect864-9-8-9"
       style="fill:#97e4a5;fill-opacity:1;stroke:#000000;stroke-width:0.35277778;stroke-linecap:butt;stroke-miterlimit:4;stroke-dasharray:none;stroke-dashoffset:0;stroke-opacity:1;paint-order:normal" />
    <rect
       y="356.21063"
       x="105.94008"
       height="3.1981938"
       width="3.1981938"
       id="rect864-9-8-9-0"
       style="fill:#97e4a5;fill-opacity:1;stroke:#000000;stroke-width:0.35277778;stroke-linecap:butt;stroke-miterlimit:4;stroke-dasharray:none;stroke-dashoffset:0;stroke-opacity:1;paint-order:normal" />
    <text
       id="text1092"
       y="403.90427"
       x="77.686798"
       style="font-style:normal;font-weight:normal;font-size:10.58333397px;line-height:1.25;font-family:sans-serif;letter-spacing:0px;word-spacing:0px;fill:#000000;fill-opacity:1;stroke:none;stroke-width:0.26458335"
       xml:space="preserve"><tspan
         style="font-style:normal;font-variant:normal;font-weight:normal;font-stretch:normal;font-size:3.52777791px;font-family:cmr10;-inkscape-font-specification:'cmr10, Normal';font-variant-ligatures:normal;font-variant-caps:normal;font-variant-numeric:normal;font-feature-settings:normal;text-align:start;writing-mode:lr-tb;text-anchor:start;stroke-width:0.26458335"
         y="403.90427"
         x="77.686798"
         id="tspan1090"
         sodipodi:role="line">Juntion</tspan></text>
    <rect
       y="401.17123"
       x="73.063896"
       height="3.1981938"
       width="3.1981938"
       id="rect864-9-4"
       style="fill:#97e4a5;fill-opacity:1;stroke:#000000;stroke-width:0.35277778;stroke-linecap:butt;stroke-miterlimit:4;stroke-dasharray:none;stroke-dashoffset:0;stroke-opacity:1;paint-order:normal" />
    <circle
       r="1.7094934"
       cy="407.40054"
       cx="74.66301"
       id="path866-8-4-0"
       style="fill:#97c7e4;fill-opacity:1;stroke:#000000;stroke-width:0.35277778;stroke-linecap:butt;stroke-miterlimit:4;stroke-dasharray:none;stroke-dashoffset:0;stroke-opacity:1;paint-order:normal" />
    <text
       id="text1092-7"
       y="408.66122"
       x="77.518494"
       style="font-style:normal;font-weight:normal;font-size:10.58333302px;line-height:1.25;font-family:sans-serif;letter-spacing:0px;word-spacing:0px;fill:#000000;fill-opacity:1;stroke:none;stroke-width:0.26458335"
       xml:space="preserve"><tspan
         style="font-style:normal;font-variant:normal;font-weight:normal;font-stretch:normal;font-size:3.52777791px;font-family:cmr10;-inkscape-font-specification:'cmr10, Normal';font-variant-ligatures:normal;font-variant-caps:normal;font-variant-numeric:normal;font-feature-settings:normal;text-align:start;writing-mode:lr-tb;text-anchor:start;stroke-width:0.26458335"
         y="408.66122"
         x="77.518494"
         id="tspan1090-8"
         sodipodi:role="line">Compressed node</tspan></text>
    <circle
       r="1.7094934"
       cy="412.03076"
       cx="74.7575"
       id="path866-8-4-9-3-0-0"
       style="fill:#96e4a4;fill-opacity:1;stroke:#000000;stroke-width:0.35277778;stroke-linecap:butt;stroke-miterlimit:4;stroke-dasharray:none;stroke-dashoffset:0;stroke-opacity:1;paint-order:normal" />
    <text
       id="text1092-7-6"
       y="413.33017"
       x="77.223824"
       style="font-style:normal;font-weight:normal;font-size:10.58333302px;line-height:1.25;font-family:sans-serif;letter-spacing:0px;word-spacing:0px;fill:#000000;fill-opacity:1;stroke:none;stroke-width:0.26458335"
       xml:space="preserve"><tspan
         style="font-style:normal;font-variant:normal;font-weight:normal;font-stretch:normal;font-size:3.52777791px;font-family:cmr10;-inkscape-font-specification:'cmr10, Normal';font-variant-ligatures:normal;font-variant-caps:normal;font-variant-numeric:normal;font-feature-settings:normal;text-align:start;writing-mode:lr-tb;text-anchor:start;stroke-width:0.26458335"
         y="413.33017"
         x="77.223824"
         id="tspan1090-8-3"
         sodipodi:role="line">Uncompressed node</tspan></text>
    <rect
       y="372.61996"
       x="68.101913"
       height="3.1981938"
       width="3.1981938"
       id="rect864-1"
       style="fill:#97e4a5;fill-opacity:1;stroke:#000000;stroke-width:0.35277778;stroke-linecap:butt;stroke-miterlimit:4;stroke-dasharray:none;stroke-dashoffset:0;stroke-opacity:1;paint-order:normal" />
    <rect
       y="396.74594"
       x="58.480862"
       height="3.1981938"
       width="3.1981938"
       id="rect864-9-49"
       style="fill:#97e4a5;fill-opacity:1;stroke:#000000;stroke-width:0.35277778;stroke-linecap:butt;stroke-miterlimit:4;stroke-dasharray:none;stroke-dashoffset:0;stroke-opacity:1;paint-order:normal" />
    <rect
       y="380.59979"
       x="91.459259"
       height="3.1981938"
       width="3.1981938"
       id="rect864-9-8-4"
       style="fill:#97e4a5;fill-opacity:1;stroke:#000000;stroke-width:0.35277778;stroke-linecap:butt;stroke-miterlimit:4;stroke-dasharray:none;stroke-dashoffset:0;stroke-opacity:1;paint-order:normal" />
    <circle
       r="1.7094934"
       cy="387.40277"
       cx="70.285301"
       id="path866-8-4-9-3-0-7"
       style="fill:#96e4a4;fill-opacity:1;stroke:#000000;stroke-width:0.35277778;stroke-linecap:butt;stroke-miterlimit:4;stroke-dasharray:none;stroke-dashoffset:0;stroke-opacity:1;paint-order:normal" />
    <path
       inkscape:connector-curvature="0"
       id="path1032-6"
       d="m 61.816623,397.72835 7.41778,-9.02418"
       style="fill:none;stroke:#000000;stroke-width:0.26458335px;stroke-linecap:butt;stroke-linejoin:miter;stroke-opacity:1" />
    <path
       inkscape:connector-curvature="0"
       id="path1034-2"
       d="m 61.816623,398.95677 12.00074,-2.64583"
       style="fill:none;stroke:#000000;stroke-width:0.26458335px;stroke-linecap:butt;stroke-linejoin:miter;stroke-opacity:1" />
    <path
       inkscape:connector-curvature="0"
       id="path1036-0"
       d="m 74.573313,393.7596 -3.26004,-5.14992"
       style="fill:none;stroke:#000000;stroke-width:0.26458335px;stroke-linecap:butt;stroke-linejoin:miter;stroke-opacity:1" />
    <path
       inkscape:connector-curvature="0"
       id="path1038-2"
       d="m 70.368333,385.68036 -0.23624,-9.73289"
       style="fill:none;stroke:#000000;stroke-width:0.26458335px;stroke-linecap:butt;stroke-linejoin:miter;stroke-opacity:1" />
    <path
       inkscape:connector-curvature="0"
       id="path1040-2"
       d="m 91.459273,383.79801 -14.52361,10.62305"
       style="fill:none;stroke:#000000;stroke-width:0.26458335px;stroke-linecap:butt;stroke-linejoin:miter;stroke-opacity:1" />
    <rect
       y="393.64185"
       x="73.81736"
       height="3.1981938"
       width="3.1981938"
       id="rect864-9-8-9-5"
       style="fill:#97e4a5;fill-opacity:1;stroke:#000000;stroke-width:0.35277778;stroke-linecap:butt;stroke-miterlimit:4;stroke-dasharray:none;stroke-dashoffset:0;stroke-opacity:1;paint-order:normal" />
    <rect
       y="394.47983"
       x="99.595474"
       height="3.1981938"
       width="3.1981938"
       id="rect864-9-8-9-0-6"
       style="fill:#97e4a5;fill-opacity:1;stroke:#000000;stroke-width:0.35277778;stroke-linecap:butt;stroke-miterlimit:4;stroke-dasharray:none;stroke-dashoffset:0;stroke-opacity:1;paint-order:normal" />
    <path
       sodipodi:nodetypes="csc"
       inkscape:connector-curvature="0"
       id="path1259"
       d="m 67.990584,374.01485 c -5.013917,0.45822 -12.249088,5.62551 -14.327959,12.09836 -2.078868,6.47284 4.697674,12.42047 4.697674,12.42047"
       style="fill:none;stroke:#97c7e4;stroke-width:0.26458335px;stroke-linecap:butt;stroke-linejoin:miter;stroke-opacity:1" />
    <path
       sodipodi:nodetypes="cc"
       inkscape:connector-curvature="0"
       id="path1261"
       d="m 77.015559,395.25254 c 5.298979,0.0872 13.428599,-1.34999 22.579914,0.83798"
       style="fill:none;stroke:#97c7e4;stroke-width:0.26458335px;stroke-linecap:butt;stroke-linejoin:miter;stroke-opacity:1" />
    <path
       sodipodi:nodetypes="cc"
       inkscape:connector-curvature="0"
       id="path1263"
       d="m 71.370542,374.60662 c 8.586032,-0.0334 19.944988,7.11606 19.944988,7.11606"
       style="fill:none;stroke:#97c7e4;stroke-width:0.26458335px;stroke-linecap:butt;stroke-linejoin:miter;stroke-opacity:1" />
    <path
       inkscape:connector-curvature="0"
       id="path1265"
       d="m 72.997995,416.93544 h 3.30747"
       style="fill:none;stroke:#97c7e4;stroke-width:0.35277778;stroke-linecap:butt;stroke-linejoin:miter;stroke-miterlimit:4;stroke-dasharray:none;stroke-opacity:1" />
    <text
       id="text1092-7-6-1"
       y="417.7319"
       x="77.033844"
       style="font-style:normal;font-weight:normal;font-size:10.58333302px;line-height:1.25;font-family:sans-serif;letter-spacing:0px;word-spacing:0px;fill:#000000;fill-opacity:1;stroke:none;stroke-width:0.26458335"
       xml:space="preserve"><tspan
         style="font-style:normal;font-variant:normal;font-weight:normal;font-stretch:normal;font-size:3.52777791px;font-family:cmr10;-inkscape-font-specification:'cmr10, Normal';font-variant-ligatures:normal;font-variant-caps:normal;font-variant-numeric:normal;font-feature-settings:normal;text-align:start;writing-mode:lr-tb;text-anchor:start;stroke-width:0.26458335"
         y="417.7319"
         x="77.033844"
         id="tspan1090-8-3-3"
         sodipodi:role="line">Compressed edge</tspan></text>
    <path
       sodipodi:nodetypes="cc"
       inkscape:connector-curvature="0"
       id="path1318"
       d="m 72.149392,360.91892 v 9.92187"
       style="fill:none;stroke:#000000;stroke-width:0.35277778;stroke-linecap:butt;stroke-linejoin:miter;stroke-miterlimit:4;stroke-dasharray:none;stroke-opacity:1;marker-end:url(#Arrow2Lend)" />
    <text
       id="text1092-0"
       y="366.05383"
       x="72.642532"
       style="font-style:normal;font-weight:normal;font-size:10.58333302px;line-height:1.25;font-family:sans-serif;letter-spacing:0px;word-spacing:0px;fill:#000000;fill-opacity:1;stroke:none;stroke-width:0.26458335"
       xml:space="preserve"><tspan
         style="font-style:normal;font-variant:normal;font-weight:normal;font-stretch:normal;font-size:3.52777791px;font-family:cmr10;-inkscape-font-specification:'cmr10, Normal';font-variant-ligatures:normal;font-variant-caps:normal;font-variant-numeric:normal;font-feature-settings:normal;text-align:start;writing-mode:lr-tb;text-anchor:start;stroke-width:0.26458335"
         y="366.05383"
         x="72.642532"
         id="tspan1090-6"
         sodipodi:role="line">Compress graph</tspan></text>
    <rect
       y="261.49387"
       x="51.317623"
       height="4.9854274"
       width="4.9854274"
       id="rect864-4-6"
       style="fill:#97e4a5;fill-opacity:1;stroke:#000000;stroke-width:0.35277778;stroke-linecap:butt;stroke-miterlimit:4;stroke-dasharray:none;stroke-dashoffset:0;stroke-opacity:1;paint-order:normal" />
    <text
       xml:space="preserve"
       style="font-style:normal;font-weight:normal;font-size:10.58333397px;line-height:1.25;font-family:sans-serif;letter-spacing:0px;word-spacing:0px;fill:#000000;fill-opacity:1;stroke:none;stroke-width:0.26458335"
       x="52.440174"
       y="265.35675"
       id="text11156"><tspan
         sodipodi:role="line"
         id="tspan11154"
         x="52.440174"
         y="265.35675"
         style="font-style:normal;font-variant:normal;font-weight:normal;font-stretch:normal;font-size:3.52777791px;font-family:cmr10;-inkscape-font-specification:'cmr10, Normal';font-variant-ligatures:normal;font-variant-caps:normal;font-variant-numeric:normal;font-feature-settings:normal;text-align:start;writing-mode:lr-tb;text-anchor:start;stroke-width:0.26458335">A</tspan></text>
    <rect
       y="291.30679"
       x="57.506981"
       height="4.9854274"
       width="4.9854274"
       id="rect864-4-6-0"
       style="fill:#97e4a5;fill-opacity:1;stroke:#000000;stroke-width:0.35277778;stroke-linecap:butt;stroke-miterlimit:4;stroke-dasharray:none;stroke-dashoffset:0;stroke-opacity:1;paint-order:normal" />
    <text
       xml:space="preserve"
       style="font-style:normal;font-weight:normal;font-size:10.58333302px;line-height:1.25;font-family:sans-serif;letter-spacing:0px;word-spacing:0px;fill:#000000;fill-opacity:1;stroke:none;stroke-width:0.26458335"
       x="58.629532"
       y="295.16965"
       id="text11156-8"><tspan
         sodipodi:role="line"
         id="tspan11154-5"
         x="58.629532"
         y="295.16965"
         style="font-style:normal;font-variant:normal;font-weight:normal;font-stretch:normal;font-size:3.52777791px;font-family:cmr10;-inkscape-font-specification:'cmr10, Normal';font-variant-ligatures:normal;font-variant-caps:normal;font-variant-numeric:normal;font-feature-settings:normal;text-align:start;writing-mode:lr-tb;text-anchor:start;stroke-width:0.26458335">B</tspan></text>
    <rect
       y="288.08545"
       x="99.880066"
       height="4.9854274"
       width="4.9854274"
       id="rect864-4-6-0-3"
       style="fill:#97e4a5;fill-opacity:1;stroke:#000000;stroke-width:0.35277778;stroke-linecap:butt;stroke-miterlimit:4;stroke-dasharray:none;stroke-dashoffset:0;stroke-opacity:1;paint-order:normal" />
    <text
       xml:space="preserve"
       style="font-style:normal;font-weight:normal;font-size:10.58333302px;line-height:1.25;font-family:sans-serif;letter-spacing:0px;word-spacing:0px;fill:#000000;fill-opacity:1;stroke:none;stroke-width:0.26458335"
       x="101.00263"
       y="291.9483"
       id="text11156-8-9"><tspan
         sodipodi:role="line"
         id="tspan11154-5-4"
         x="101.00263"
         y="291.9483"
         style="font-style:normal;font-variant:normal;font-weight:normal;font-stretch:normal;font-size:3.52777791px;font-family:cmr10;-inkscape-font-specification:'cmr10, Normal';font-variant-ligatures:normal;font-variant-caps:normal;font-variant-numeric:normal;font-feature-settings:normal;text-align:start;writing-mode:lr-tb;text-anchor:start;stroke-width:0.26458335">D</tspan></text>
    <rect
       y="258.67776"
       x="99.339279"
       height="4.9854274"
       width="4.9854274"
       id="rect864-4-6-0-3-1"
       style="fill:#97e4a5;fill-opacity:1;stroke:#000000;stroke-width:0.35277778;stroke-linecap:butt;stroke-miterlimit:4;stroke-dasharray:none;stroke-dashoffset:0;stroke-opacity:1;paint-order:normal" />
    <text
       xml:space="preserve"
       style="font-style:normal;font-weight:normal;font-size:10.58333302px;line-height:1.25;font-family:sans-serif;letter-spacing:0px;word-spacing:0px;fill:#000000;fill-opacity:1;stroke:none;stroke-width:0.26458335"
       x="100.46183"
       y="262.54062"
       id="text11156-8-9-5"><tspan
         sodipodi:role="line"
         id="tspan11154-5-4-4"
         x="100.46183"
         y="262.54062"
         style="font-style:normal;font-variant:normal;font-weight:normal;font-stretch:normal;font-size:3.52777791px;font-family:cmr10;-inkscape-font-specification:'cmr10, Normal';font-variant-ligatures:normal;font-variant-caps:normal;font-variant-numeric:normal;font-feature-settings:normal;text-align:start;writing-mode:lr-tb;text-anchor:start;stroke-width:0.26458335">C</tspan></text>
    <circle
       r="2.8230202"
       cy="276.22363"
       cx="26.170828"
       id="path866-8-1"
       style="fill:#97c7e4;fill-opacity:1;stroke:#000000;stroke-width:0.35277778;stroke-linecap:butt;stroke-miterlimit:4;stroke-dasharray:none;stroke-dashoffset:0;stroke-opacity:1;paint-order:normal" />
    <text
       xml:space="preserve"
       style="font-style:normal;font-weight:normal;font-size:10.58333302px;line-height:1.25;font-family:sans-serif;letter-spacing:0px;word-spacing:0px;fill:#000000;fill-opacity:1;stroke:none;stroke-width:0.26458335"
       x="24.962461"
       y="277.33405"
       id="text11156-8-5"><tspan
         sodipodi:role="line"
         id="tspan11154-5-5"
         x="24.962461"
         y="277.33405"
         style="font-style:normal;font-variant:normal;font-weight:normal;font-stretch:normal;font-size:3.52777791px;font-family:cmr10;-inkscape-font-specification:'cmr10, Normal';font-variant-ligatures:normal;font-variant-caps:normal;font-variant-numeric:normal;font-feature-settings:normal;text-align:start;writing-mode:lr-tb;text-anchor:start;stroke-width:0.26458335">E</tspan></text>
    <text
       xml:space="preserve"
       style="font-style:normal;font-weight:normal;font-size:9.00195408px;line-height:1.25;font-family:sans-serif;letter-spacing:0px;word-spacing:0px;fill:#000000;fill-opacity:1;stroke:none;stroke-width:0.22504887"
       x="68.549492"
       y="277.25748"
       id="text11156-4"><tspan
         sodipodi:role="line"
         id="tspan11154-9"
         x="68.549492"
         y="277.25748"
         style="font-style:normal;font-variant:normal;font-weight:normal;font-stretch:normal;font-size:3.0006516px;font-family:cmr10;-inkscape-font-specification:'cmr10, Normal';font-variant-ligatures:normal;font-variant-caps:normal;font-variant-numeric:normal;font-feature-settings:normal;text-align:start;writing-mode:lr-tb;text-anchor:start;stroke-width:0.22504887">Rest of the graph</tspan></text>
    <circle
       r="2.8230205"
       cy="275.26828"
       cx="137.39622"
       id="path866-8-1-8"
       style="fill:#97c7e4;fill-opacity:1;stroke:#000000;stroke-width:0.35277778;stroke-linecap:butt;stroke-miterlimit:4;stroke-dasharray:none;stroke-dashoffset:0;stroke-opacity:1;paint-order:normal" />
    <text
       xml:space="preserve"
       style="font-style:normal;font-weight:normal;font-size:10.58333302px;line-height:1.25;font-family:sans-serif;letter-spacing:0px;word-spacing:0px;fill:#000000;fill-opacity:1;stroke:none;stroke-width:0.26458335"
       x="136.18787"
       y="276.37869"
       id="text11156-8-5-3"><tspan
         sodipodi:role="line"
         id="tspan11154-5-5-8"
         x="136.18787"
         y="276.37869"
         style="font-style:normal;font-variant:normal;font-weight:normal;font-stretch:normal;font-size:3.52777791px;font-family:cmr10;-inkscape-font-specification:'cmr10, Normal';font-variant-ligatures:normal;font-variant-caps:normal;font-variant-numeric:normal;font-feature-settings:normal;text-align:start;writing-mode:lr-tb;text-anchor:start;stroke-width:0.26458335">F</tspan></text>
    <circle
       r="2.8230205"
       cy="260.72107"
       cx="111.67156"
       id="path866-8-1-8-5"
       style="fill:#97c7e4;fill-opacity:1;stroke:#000000;stroke-width:0.35277778;stroke-linecap:butt;stroke-miterlimit:4;stroke-dasharray:none;stroke-dashoffset:0;stroke-opacity:1;paint-order:normal" />
    <circle
       r="2.8230205"
       cy="293.51599"
       cx="51.411392"
       id="path866-8-1-8-2"
       style="fill:#97c7e4;fill-opacity:1;stroke:#000000;stroke-width:0.35277778;stroke-linecap:butt;stroke-miterlimit:4;stroke-dasharray:none;stroke-dashoffset:0;stroke-opacity:1;paint-order:normal" />
    <circle
       r="2.8230205"
       cy="283.87762"
       cx="32.218445"
       id="path866-8-1-8-2-3"
       style="fill:#97c7e4;fill-opacity:1;stroke:#000000;stroke-width:0.35277778;stroke-linecap:butt;stroke-miterlimit:4;stroke-dasharray:none;stroke-dashoffset:0;stroke-opacity:1;paint-order:normal" />
    <circle
       r="2.8230205"
       cy="269.42004"
       cx="30.801037"
       id="path866-8-1-8-2-3-4"
       style="fill:#97c7e4;fill-opacity:1;stroke:#000000;stroke-width:0.35277778;stroke-linecap:butt;stroke-miterlimit:4;stroke-dasharray:none;stroke-dashoffset:0;stroke-opacity:1;paint-order:normal" />
    <circle
       r="2.8230205"
       cy="263.27789"
       cx="46.203568"
       id="path866-8-1-8-2-3-4-6"
       style="fill:#97c7e4;fill-opacity:1;stroke:#000000;stroke-width:0.35277778;stroke-linecap:butt;stroke-miterlimit:4;stroke-dasharray:none;stroke-dashoffset:0;stroke-opacity:1;paint-order:normal" />
    <text
       xml:space="preserve"
       style="font-style:normal;font-weight:normal;font-size:10.58333397px;line-height:1.25;font-family:sans-serif;letter-spacing:0px;word-spacing:0px;fill:#000000;fill-opacity:1;stroke:none;stroke-width:0.26458335"
       x="39.864937"
       y="290.90933"
       id="text11596"><tspan
         sodipodi:role="line"
         id="tspan11594"
         x="39.864937"
         y="290.90933"
         style="font-style:normal;font-variant:normal;font-weight:normal;font-stretch:normal;font-size:4.23333359px;font-family:cmr10;-inkscape-font-specification:'cmr10, Normal';font-variant-ligatures:normal;font-variant-caps:normal;font-variant-numeric:normal;font-feature-settings:normal;text-align:start;writing-mode:lr-tb;text-anchor:start;stroke-width:0.26458335">...</tspan></text>
    <path
       style="fill:none;stroke:#000000;stroke-width:0.26458335px;stroke-linecap:butt;stroke-linejoin:miter;stroke-opacity:1"
       d="m 60.377673,291.20091 2.88207,-12.80394"
       id="path11616"
       inkscape:connector-curvature="0" />
    <path
       style="fill:none;stroke:#000000;stroke-width:0.26458335px;stroke-linecap:butt;stroke-linejoin:miter;stroke-opacity:1"
       d="m 62.645531,294.31921 15.071802,-4.58296"
       id="path11618"
       inkscape:connector-curvature="0" />
    <path
       style="fill:none;stroke:#000000;stroke-width:0.26458335px;stroke-linecap:butt;stroke-linejoin:miter;stroke-opacity:1"
       d="m 32.965915,267.71399 1.670435,-0.80181"
       id="path11630"
       inkscape:connector-curvature="0" />
    <path
       style="fill:none;stroke:#000000;stroke-width:0.26458335px;stroke-linecap:butt;stroke-linejoin:miter;stroke-opacity:1"
       d="m 48.957385,263.44996 2.271789,0.26727"
       id="path11634"
       inkscape:connector-curvature="0" />
    <circle
       r="2.8230205"
       cy="289.16928"
       cx="110.36501"
       id="path866-8-1-8-5-1"
       style="fill:#97c7e4;fill-opacity:1;stroke:#000000;stroke-width:0.35277778;stroke-linecap:butt;stroke-miterlimit:4;stroke-dasharray:none;stroke-dashoffset:0;stroke-opacity:1;paint-order:normal" />
    <circle
       r="2.8230205"
       cy="282.64917"
       cx="134.46103"
       id="path866-8-1-8-5-1-0"
       style="fill:#97c7e4;fill-opacity:1;stroke:#000000;stroke-width:0.35277778;stroke-linecap:butt;stroke-miterlimit:4;stroke-dasharray:none;stroke-dashoffset:0;stroke-opacity:1;paint-order:normal" />
    <circle
       r="2.8230205"
       cy="268.38055"
       cx="133.4216"
       id="path866-8-1-8-5-1-0-8"
       style="fill:#97c7e4;fill-opacity:1;stroke:#000000;stroke-width:0.35277778;stroke-linecap:butt;stroke-miterlimit:4;stroke-dasharray:none;stroke-dashoffset:0;stroke-opacity:1;paint-order:normal" />
    <path
       style="fill:none;stroke:#000000;stroke-width:0.26458335px;stroke-linecap:butt;stroke-linejoin:miter;stroke-opacity:1"
       d="m 104.64176,261.00295 4.20949,-0.33409"
       id="path11693"
       inkscape:connector-curvature="0" />
    <path
       style="fill:none;stroke:#000000;stroke-width:0.26458335px;stroke-linecap:butt;stroke-linejoin:miter;stroke-opacity:1"
       d="m 135.06905,270.68868 1.06907,1.80407"
       id="path11699"
       inkscape:connector-curvature="0" />
    <path
       style="fill:none;stroke:#000000;stroke-width:0.26458335px;stroke-linecap:butt;stroke-linejoin:miter;stroke-opacity:1"
       d="m 137.27402,278.17223 -1.00226,2.20497"
       id="path11701"
       inkscape:connector-curvature="0" />
    <path
       style="fill:none;stroke:#000000;stroke-width:0.26458335px;stroke-linecap:butt;stroke-linejoin:miter;stroke-opacity:1"
       d="m 107.95054,290.59111 -3.27405,0.4009"
       id="path11705"
       inkscape:connector-curvature="0" />
    <text
       xml:space="preserve"
       style="font-style:normal;font-weight:normal;font-size:10.58333302px;line-height:1.25;font-family:sans-serif;letter-spacing:0px;word-spacing:0px;fill:#000000;fill-opacity:1;stroke:none;stroke-width:0.26458335"
       x="120.78551"
       y="264.58981"
       id="text11596-7"><tspan
         sodipodi:role="line"
         id="tspan11594-6"
         x="120.78551"
         y="264.58981"
         style="font-style:normal;font-variant:normal;font-weight:normal;font-stretch:normal;font-size:4.23333359px;font-family:cmr10;-inkscape-font-specification:'cmr10, Normal';font-variant-ligatures:normal;font-variant-caps:normal;font-variant-numeric:normal;font-feature-settings:normal;text-align:start;writing-mode:lr-tb;text-anchor:start;stroke-width:0.26458335">...</tspan></text>
    <text
       xml:space="preserve"
       style="font-style:normal;font-weight:normal;font-size:10.58333302px;line-height:1.25;font-family:sans-serif;letter-spacing:0px;word-spacing:0px;fill:#000000;fill-opacity:1;stroke:none;stroke-width:0.26458335"
       x="120.61112"
       y="287.4816"
       id="text11596-7-3"><tspan
         sodipodi:role="line"
         id="tspan11594-6-5"
         x="120.61112"
         y="287.4816"
         style="font-style:normal;font-variant:normal;font-weight:normal;font-stretch:normal;font-size:4.23333359px;font-family:cmr10;-inkscape-font-specification:'cmr10, Normal';font-variant-ligatures:normal;font-variant-caps:normal;font-variant-numeric:normal;font-feature-settings:normal;text-align:start;writing-mode:lr-tb;text-anchor:start;stroke-width:0.26458335">...</tspan></text>
    <text
       xml:space="preserve"
       style="font-style:normal;font-weight:normal;font-size:10.58333302px;line-height:1.25;font-family:sans-serif;letter-spacing:0px;word-spacing:0px;fill:#000000;fill-opacity:1;stroke:none;stroke-width:0.26458335"
       x="36.815674"
       y="265.7431"
       id="text11596-0"><tspan
         sodipodi:role="line"
         id="tspan11594-8"
         x="36.815674"
         y="265.7431"
         style="font-style:normal;font-variant:normal;font-weight:normal;font-stretch:normal;font-size:4.23333359px;font-family:cmr10;-inkscape-font-specification:'cmr10, Normal';font-variant-ligatures:normal;font-variant-caps:normal;font-variant-numeric:normal;font-feature-settings:normal;text-align:start;writing-mode:lr-tb;text-anchor:start;stroke-width:0.26458335">...</tspan></text>
    <path
       style="fill:none;stroke:#000000;stroke-width:0.26458335px;stroke-linecap:butt;stroke-linejoin:miter;stroke-opacity:1"
       d="m 54.284733,294.00633 3.073601,0.0668"
       id="path11765"
       inkscape:connector-curvature="0" />
    <path
       style="fill:none;stroke:#000000;stroke-width:0.26458335px;stroke-linecap:butt;stroke-linejoin:miter;stroke-opacity:1"
       d="M 48.605255,293.80587 44.729848,292.0018"
       id="path11767"
       inkscape:connector-curvature="0" />
    <path
       style="fill:none;stroke:#000000;stroke-width:0.26458335px;stroke-linecap:butt;stroke-linejoin:miter;stroke-opacity:1"
       d="m 38.382197,289.06184 -4.075861,-3.14042"
       id="path11769"
       inkscape:connector-curvature="0" />
    <path
       style="fill:none;stroke:#000000;stroke-width:0.26458335px;stroke-linecap:butt;stroke-linejoin:miter;stroke-opacity:1"
       d="m 29.762754,282.04601 -2.138156,-3.34087"
       id="path11771"
       inkscape:connector-curvature="0" />
    <path
       style="fill:none;stroke:#000000;stroke-width:0.26458335px;stroke-linecap:butt;stroke-linejoin:miter;stroke-opacity:1"
       d="m 27.691416,273.76066 1.536798,-2.07134"
       id="path11773"
       inkscape:connector-curvature="0" />
    <path
       style="fill:none;stroke:#000000;stroke-width:0.26458335px;stroke-linecap:butt;stroke-linejoin:miter;stroke-opacity:1"
       d="m 42.257605,264.80713 1.202714,-0.53454"
       id="path11775"
       inkscape:connector-curvature="0" />
    <path
       style="fill:none;stroke:#000000;stroke-width:0.26458335px;stroke-linecap:butt;stroke-linejoin:miter;stroke-opacity:1"
       d="m 52.81475,266.54438 1.336349,4.14268"
       id="path11777"
       inkscape:connector-curvature="0" />
    <path
       style="fill:none;stroke:#000000;stroke-width:0.26458335px;stroke-linecap:butt;stroke-linejoin:miter;stroke-opacity:1"
       d="m 56.303054,261.49388 11.144705,-0.49534"
       id="path11779"
       inkscape:connector-curvature="0" />
    <path
       style="fill:none;stroke:#000000;stroke-width:0.26458335px;stroke-linecap:butt;stroke-linejoin:miter;stroke-opacity:1"
       d="m 93.416815,261.56474 5.922461,-2.88698"
       id="path11781"
       inkscape:connector-curvature="0" />
    <path
       style="fill:none;stroke:#000000;stroke-width:0.26458335px;stroke-linecap:butt;stroke-linejoin:miter;stroke-opacity:1"
       d="m 101.54329,263.8326 -6.236593,6.3311"
       id="path11783"
       inkscape:connector-curvature="0" />
    <path
       style="fill:none;stroke:#000000;stroke-width:0.26458335px;stroke-linecap:butt;stroke-linejoin:miter;stroke-opacity:1"
       d="m 102.20475,287.92859 -2.17336,-4.25224"
       id="path11785"
       inkscape:connector-curvature="0" />
    <path
       style="fill:none;stroke:#000000;stroke-width:0.26458335px;stroke-linecap:butt;stroke-linejoin:miter;stroke-opacity:1"
       d="M 99.653413,291.04689 89.259078,283.67635"
       id="path11787"
       inkscape:connector-curvature="0" />
    <path
       style="fill:none;stroke:#000000;stroke-width:0.26458335px;stroke-linecap:butt;stroke-linejoin:miter;stroke-opacity:1"
       d="m 113.26055,288.77903 4.25224,-1.03943"
       id="path11789"
       inkscape:connector-curvature="0" />
    <path
       style="fill:none;stroke:#000000;stroke-width:0.26458335px;stroke-linecap:butt;stroke-linejoin:miter;stroke-opacity:1"
       d="m 126.7732,286.0387 5.19718,-1.79538"
       id="path11791"
       inkscape:connector-curvature="0" />
    <path
       style="fill:none;stroke:#000000;stroke-width:0.26458335px;stroke-linecap:butt;stroke-linejoin:miter;stroke-opacity:1"
       d="m 130.45847,267.32888 -2.64583,-1.79539"
       id="path11793"
       inkscape:connector-curvature="0" />
    <path
       style="fill:none;stroke:#000000;stroke-width:0.26458335px;stroke-linecap:butt;stroke-linejoin:miter;stroke-opacity:1"
       d="m 117.3238,262.60418 -2.92932,-1.03944"
       id="path11795"
       inkscape:connector-curvature="0" />
  </g>
</svg>
